<mxfile host="Electron" modified="2023-10-23T08:45:39.639Z" agent="Mozilla/5.0 (Windows NT 10.0; Win64; x64) AppleWebKit/537.36 (KHTML, like Gecko) draw.io/22.0.2 Chrome/114.0.5735.289 Electron/25.8.4 Safari/537.36" etag="4ZocplYl98KwKhuQl_ML" version="22.0.2" type="device">
  <diagram name="Page-1" id="7cXBr8v98BPQMJz95TIL">
    <mxGraphModel dx="3883" dy="371" grid="1" gridSize="10" guides="1" tooltips="1" connect="1" arrows="1" fold="1" page="1" pageScale="1" pageWidth="3300" pageHeight="4681" math="0" shadow="0">
      <root>
        <mxCell id="0" />
        <mxCell id="1" parent="0" />
        <mxCell id="jouAs4YN88GggbfPHZCA-404" value="" style="html=1;align=center;verticalAlign=top;rounded=1;absoluteArcSize=1;arcSize=20;dashed=1;whiteSpace=wrap;" vertex="1" parent="1">
          <mxGeometry x="130" y="3510" width="500" height="140" as="geometry" />
        </mxCell>
        <mxCell id="eeQnbSwuubueaIoQva4B-1" value="CLIENT" style="html=1;align=center;verticalAlign=top;rounded=1;absoluteArcSize=1;arcSize=20;dashed=1;whiteSpace=wrap;" parent="1" vertex="1">
          <mxGeometry x="960" y="760" width="450" height="180" as="geometry" />
        </mxCell>
        <mxCell id="eeQnbSwuubueaIoQva4B-4" value="" style="verticalLabelPosition=bottom;verticalAlign=top;html=1;shadow=0;dashed=0;strokeWidth=1;shape=mxgraph.android.phone2;strokeColor=#c0c0c0;" parent="1" vertex="1">
          <mxGeometry x="1010" y="810" width="50" height="80" as="geometry" />
        </mxCell>
        <mxCell id="eeQnbSwuubueaIoQva4B-8" value="" style="sketch=0;pointerEvents=1;shadow=0;dashed=0;html=1;strokeColor=none;fillColor=#434445;aspect=fixed;labelPosition=center;verticalLabelPosition=bottom;verticalAlign=top;align=center;outlineConnect=0;shape=mxgraph.vvd.web_browser;" parent="1" vertex="1">
          <mxGeometry x="1128.66" y="810" width="112.68" height="80" as="geometry" />
        </mxCell>
        <mxCell id="eeQnbSwuubueaIoQva4B-9" value="" style="fontColor=#0066CC;verticalAlign=top;verticalLabelPosition=bottom;labelPosition=center;align=center;html=1;outlineConnect=0;fillColor=#CCCCCC;strokeColor=#6881B3;gradientColor=none;gradientDirection=north;strokeWidth=2;shape=mxgraph.networks.laptop;" parent="1" vertex="1">
          <mxGeometry x="1290" y="822.5" width="100" height="55" as="geometry" />
        </mxCell>
        <mxCell id="eeQnbSwuubueaIoQva4B-10" value="Mobile" style="text;html=1;strokeColor=none;fillColor=none;align=center;verticalAlign=middle;whiteSpace=wrap;rounded=0;" parent="1" vertex="1">
          <mxGeometry x="1005" y="900" width="60" height="30" as="geometry" />
        </mxCell>
        <mxCell id="eeQnbSwuubueaIoQva4B-12" value="Web" style="text;html=1;strokeColor=none;fillColor=none;align=center;verticalAlign=middle;whiteSpace=wrap;rounded=0;" parent="1" vertex="1">
          <mxGeometry x="1155" y="900" width="60" height="30" as="geometry" />
        </mxCell>
        <mxCell id="eeQnbSwuubueaIoQva4B-13" value="PC" style="text;html=1;strokeColor=none;fillColor=none;align=center;verticalAlign=middle;whiteSpace=wrap;rounded=0;" parent="1" vertex="1">
          <mxGeometry x="1310" y="901" width="60" height="30" as="geometry" />
        </mxCell>
        <mxCell id="eeQnbSwuubueaIoQva4B-15" value="API GATEWAY" style="rounded=1;whiteSpace=wrap;html=1;" parent="1" vertex="1">
          <mxGeometry x="785" y="1420" width="800" height="60" as="geometry" />
        </mxCell>
        <mxCell id="eeQnbSwuubueaIoQva4B-20" value="" style="rounded=0;whiteSpace=wrap;html=1;" parent="1" vertex="1">
          <mxGeometry x="880" y="1060" width="610" height="210" as="geometry" />
        </mxCell>
        <mxCell id="eeQnbSwuubueaIoQva4B-21" value="Authentication" style="rounded=0;whiteSpace=wrap;html=1;" parent="1" vertex="1">
          <mxGeometry x="930" y="1090" width="120" height="60" as="geometry" />
        </mxCell>
        <mxCell id="eeQnbSwuubueaIoQva4B-22" value="Mornitoring" style="rounded=0;whiteSpace=wrap;html=1;" parent="1" vertex="1">
          <mxGeometry x="1111.34" y="1090" width="130" height="60" as="geometry" />
        </mxCell>
        <mxCell id="eeQnbSwuubueaIoQva4B-23" value="Secutiry" style="rounded=0;whiteSpace=wrap;html=1;" parent="1" vertex="1">
          <mxGeometry x="930" y="1180" width="120" height="60" as="geometry" />
        </mxCell>
        <mxCell id="eeQnbSwuubueaIoQva4B-24" value="Caching" style="rounded=0;whiteSpace=wrap;html=1;" parent="1" vertex="1">
          <mxGeometry x="1116" y="1180" width="120" height="60" as="geometry" />
        </mxCell>
        <mxCell id="eeQnbSwuubueaIoQva4B-25" value="Logging" style="rounded=0;whiteSpace=wrap;html=1;" parent="1" vertex="1">
          <mxGeometry x="1310" y="1090" width="120" height="60" as="geometry" />
        </mxCell>
        <mxCell id="eeQnbSwuubueaIoQva4B-26" value="" style="endArrow=classic;html=1;rounded=0;exitX=0.5;exitY=1;exitDx=0;exitDy=0;entryX=0.5;entryY=0;entryDx=0;entryDy=0;" parent="1" source="eeQnbSwuubueaIoQva4B-1" target="eeQnbSwuubueaIoQva4B-20" edge="1">
          <mxGeometry width="50" height="50" relative="1" as="geometry">
            <mxPoint x="1320" y="1010" as="sourcePoint" />
            <mxPoint x="1370" y="960" as="targetPoint" />
          </mxGeometry>
        </mxCell>
        <mxCell id="eeQnbSwuubueaIoQva4B-27" value="" style="endArrow=classic;html=1;rounded=0;exitX=0.5;exitY=1;exitDx=0;exitDy=0;entryX=0.5;entryY=0;entryDx=0;entryDy=0;" parent="1" source="eeQnbSwuubueaIoQva4B-20" target="eeQnbSwuubueaIoQva4B-15" edge="1">
          <mxGeometry width="50" height="50" relative="1" as="geometry">
            <mxPoint x="1260" y="1360" as="sourcePoint" />
            <mxPoint x="1310" y="1310" as="targetPoint" />
          </mxGeometry>
        </mxCell>
        <mxCell id="eeQnbSwuubueaIoQva4B-28" value="Service registry" style="rounded=0;whiteSpace=wrap;html=1;" parent="1" vertex="1">
          <mxGeometry x="1800" y="1580" width="120" height="60" as="geometry" />
        </mxCell>
        <mxCell id="eeQnbSwuubueaIoQva4B-29" value="" style="endArrow=classic;html=1;rounded=0;exitX=1;exitY=0.25;exitDx=0;exitDy=0;entryX=0;entryY=0.25;entryDx=0;entryDy=0;" parent="1" source="eeQnbSwuubueaIoQva4B-35" target="eeQnbSwuubueaIoQva4B-28" edge="1">
          <mxGeometry width="50" height="50" relative="1" as="geometry">
            <mxPoint x="1245.0000000000005" y="1595" as="sourcePoint" />
            <mxPoint x="1400" y="1530" as="targetPoint" />
          </mxGeometry>
        </mxCell>
        <mxCell id="eeQnbSwuubueaIoQva4B-31" value="Discover Service" style="edgeLabel;html=1;align=center;verticalAlign=middle;resizable=0;points=[];" parent="eeQnbSwuubueaIoQva4B-29" vertex="1" connectable="0">
          <mxGeometry x="-0.0024" y="3" relative="1" as="geometry">
            <mxPoint x="-1" as="offset" />
          </mxGeometry>
        </mxCell>
        <mxCell id="eeQnbSwuubueaIoQva4B-30" value="" style="endArrow=classic;html=1;rounded=0;exitX=0;exitY=0.75;exitDx=0;exitDy=0;entryX=1;entryY=0.75;entryDx=0;entryDy=0;" parent="1" source="eeQnbSwuubueaIoQva4B-28" target="eeQnbSwuubueaIoQva4B-35" edge="1">
          <mxGeometry width="50" height="50" relative="1" as="geometry">
            <mxPoint x="1320" y="1720" as="sourcePoint" />
            <mxPoint x="1245.0000000000005" y="1625" as="targetPoint" />
          </mxGeometry>
        </mxCell>
        <mxCell id="eeQnbSwuubueaIoQva4B-32" value="Service Location" style="edgeLabel;html=1;align=center;verticalAlign=middle;resizable=0;points=[];" parent="eeQnbSwuubueaIoQva4B-30" vertex="1" connectable="0">
          <mxGeometry x="0.0319" y="-2" relative="1" as="geometry">
            <mxPoint as="offset" />
          </mxGeometry>
        </mxCell>
        <mxCell id="eeQnbSwuubueaIoQva4B-35" value="Load Balancer" style="rounded=0;whiteSpace=wrap;html=1;" parent="1" vertex="1">
          <mxGeometry x="870" y="1580" width="630" height="60" as="geometry" />
        </mxCell>
        <mxCell id="eeQnbSwuubueaIoQva4B-37" value="" style="endArrow=classic;html=1;rounded=0;exitX=0.5;exitY=1;exitDx=0;exitDy=0;entryX=0.5;entryY=0;entryDx=0;entryDy=0;" parent="1" source="eeQnbSwuubueaIoQva4B-15" target="eeQnbSwuubueaIoQva4B-35" edge="1">
          <mxGeometry width="50" height="50" relative="1" as="geometry">
            <mxPoint x="1270" y="1570" as="sourcePoint" />
            <mxPoint x="1320" y="1520" as="targetPoint" />
          </mxGeometry>
        </mxCell>
        <mxCell id="eeQnbSwuubueaIoQva4B-41" value="Microservice" style="html=1;align=center;verticalAlign=top;rounded=1;absoluteArcSize=1;arcSize=20;dashed=1;whiteSpace=wrap;" parent="1" vertex="1">
          <mxGeometry x="180" y="1720" width="1980" height="350" as="geometry" />
        </mxCell>
        <mxCell id="eeQnbSwuubueaIoQva4B-42" value="PAYMENT SERVICE" style="rounded=0;whiteSpace=wrap;html=1;" parent="1" vertex="1">
          <mxGeometry x="645" y="1865" width="120" height="60" as="geometry" />
        </mxCell>
        <mxCell id="eeQnbSwuubueaIoQva4B-43" value="LOAN PAYMENT TRACKING" style="rounded=0;whiteSpace=wrap;html=1;" parent="1" vertex="1">
          <mxGeometry x="835" y="1865" width="120" height="60" as="geometry" />
        </mxCell>
        <mxCell id="eeQnbSwuubueaIoQva4B-44" value="CREATE LOAN SERVICE" style="rounded=0;whiteSpace=wrap;html=1;" parent="1" vertex="1">
          <mxGeometry x="1035" y="1865" width="120" height="60" as="geometry" />
        </mxCell>
        <mxCell id="eeQnbSwuubueaIoQva4B-45" value="LENDER SERVICE" style="rounded=0;whiteSpace=wrap;html=1;" parent="1" vertex="1">
          <mxGeometry x="1450" y="1865" width="120" height="60" as="geometry" />
        </mxCell>
        <mxCell id="eeQnbSwuubueaIoQva4B-47" value="CUSTOMER SERVICE" style="rounded=0;whiteSpace=wrap;html=1;" parent="1" vertex="1">
          <mxGeometry x="1610" y="1865" width="150" height="60" as="geometry" />
        </mxCell>
        <mxCell id="eeQnbSwuubueaIoQva4B-49" value="DOCKER CONTAINER" style="text;html=1;strokeColor=none;fillColor=none;align=center;verticalAlign=middle;whiteSpace=wrap;rounded=0;" parent="1" vertex="1">
          <mxGeometry x="-260" y="2180" width="170" height="30" as="geometry" />
        </mxCell>
        <mxCell id="eeQnbSwuubueaIoQva4B-51" value="" style="rounded=0;whiteSpace=wrap;html=1;" parent="1" vertex="1">
          <mxGeometry x="-730" y="2210" width="640" height="850" as="geometry" />
        </mxCell>
        <mxCell id="eeQnbSwuubueaIoQva4B-96" style="edgeStyle=orthogonalEdgeStyle;rounded=0;orthogonalLoop=1;jettySize=auto;html=1;exitX=0.5;exitY=1;exitDx=0;exitDy=0;entryX=0.5;entryY=0;entryDx=0;entryDy=0;" parent="1" source="eeQnbSwuubueaIoQva4B-50" target="eeQnbSwuubueaIoQva4B-61" edge="1">
          <mxGeometry relative="1" as="geometry" />
        </mxCell>
        <mxCell id="eeQnbSwuubueaIoQva4B-50" value="REST API" style="rounded=0;whiteSpace=wrap;html=1;" parent="1" vertex="1">
          <mxGeometry x="-470" y="2280" width="90" height="40" as="geometry" />
        </mxCell>
        <mxCell id="eeQnbSwuubueaIoQva4B-52" value="PAYMENT SERVICE" style="text;html=1;strokeColor=none;fillColor=none;align=center;verticalAlign=middle;whiteSpace=wrap;rounded=0;" parent="1" vertex="1">
          <mxGeometry x="-495" y="2220" width="170" height="30" as="geometry" />
        </mxCell>
        <mxCell id="eeQnbSwuubueaIoQva4B-53" value="" style="endArrow=none;dashed=1;html=1;rounded=0;entryX=0.5;entryY=1;entryDx=0;entryDy=0;exitX=0.5;exitY=0;exitDx=0;exitDy=0;" parent="1" source="eeQnbSwuubueaIoQva4B-51" target="eeQnbSwuubueaIoQva4B-42" edge="1">
          <mxGeometry width="50" height="50" relative="1" as="geometry">
            <mxPoint x="550" y="2090" as="sourcePoint" />
            <mxPoint x="600" y="2040" as="targetPoint" />
          </mxGeometry>
        </mxCell>
        <mxCell id="eeQnbSwuubueaIoQva4B-54" value="" style="endArrow=classic;html=1;rounded=0;exitX=0.5;exitY=1;exitDx=0;exitDy=0;" parent="1" source="eeQnbSwuubueaIoQva4B-35" target="eeQnbSwuubueaIoQva4B-42" edge="1">
          <mxGeometry width="50" height="50" relative="1" as="geometry">
            <mxPoint x="1410" y="1730" as="sourcePoint" />
            <mxPoint x="1460" y="1680" as="targetPoint" />
          </mxGeometry>
        </mxCell>
        <mxCell id="eeQnbSwuubueaIoQva4B-56" value="" style="endArrow=classic;html=1;rounded=0;exitX=0.5;exitY=1;exitDx=0;exitDy=0;entryX=0.5;entryY=0;entryDx=0;entryDy=0;" parent="1" source="eeQnbSwuubueaIoQva4B-35" target="eeQnbSwuubueaIoQva4B-43" edge="1">
          <mxGeometry width="50" height="50" relative="1" as="geometry">
            <mxPoint x="1210" y="1740" as="sourcePoint" />
            <mxPoint x="1260" y="1690" as="targetPoint" />
          </mxGeometry>
        </mxCell>
        <mxCell id="eeQnbSwuubueaIoQva4B-57" value="" style="endArrow=classic;html=1;rounded=0;entryX=0.5;entryY=0;entryDx=0;entryDy=0;exitX=0.5;exitY=1;exitDx=0;exitDy=0;" parent="1" source="eeQnbSwuubueaIoQva4B-35" target="eeQnbSwuubueaIoQva4B-44" edge="1">
          <mxGeometry width="50" height="50" relative="1" as="geometry">
            <mxPoint x="1230" y="1670" as="sourcePoint" />
            <mxPoint x="1370" y="1650" as="targetPoint" />
          </mxGeometry>
        </mxCell>
        <mxCell id="eeQnbSwuubueaIoQva4B-58" value="" style="endArrow=classic;html=1;rounded=0;exitX=0.5;exitY=1;exitDx=0;exitDy=0;entryX=0.5;entryY=0;entryDx=0;entryDy=0;" parent="1" source="eeQnbSwuubueaIoQva4B-35" target="eeQnbSwuubueaIoQva4B-45" edge="1">
          <mxGeometry width="50" height="50" relative="1" as="geometry">
            <mxPoint x="1310" y="1710" as="sourcePoint" />
            <mxPoint x="1360" y="1660" as="targetPoint" />
          </mxGeometry>
        </mxCell>
        <mxCell id="eeQnbSwuubueaIoQva4B-59" value="" style="endArrow=classic;html=1;rounded=0;exitX=0.5;exitY=1;exitDx=0;exitDy=0;entryX=0.5;entryY=0;entryDx=0;entryDy=0;" parent="1" source="eeQnbSwuubueaIoQva4B-35" target="eeQnbSwuubueaIoQva4B-47" edge="1">
          <mxGeometry width="50" height="50" relative="1" as="geometry">
            <mxPoint x="1360" y="1730" as="sourcePoint" />
            <mxPoint x="1410" y="1680" as="targetPoint" />
          </mxGeometry>
        </mxCell>
        <mxCell id="eeQnbSwuubueaIoQva4B-61" value="Controller" style="rounded=1;whiteSpace=wrap;html=1;" parent="1" vertex="1">
          <mxGeometry x="-485" y="2410" width="120" height="60" as="geometry" />
        </mxCell>
        <mxCell id="eeQnbSwuubueaIoQva4B-69" value="Ledger" style="rounded=0;whiteSpace=wrap;html=1;" parent="1" vertex="1">
          <mxGeometry x="-450" y="2530" width="120" height="60" as="geometry" />
        </mxCell>
        <mxCell id="eeQnbSwuubueaIoQva4B-70" value="" style="shape=cylinder3;whiteSpace=wrap;html=1;boundedLbl=1;backgroundOutline=1;size=15;" parent="1" vertex="1">
          <mxGeometry x="-426" y="2720" width="60" height="80" as="geometry" />
        </mxCell>
        <mxCell id="eeQnbSwuubueaIoQva4B-71" value="" style="endArrow=classic;html=1;rounded=0;exitX=0.45;exitY=1.067;exitDx=0;exitDy=0;exitPerimeter=0;" parent="1" source="eeQnbSwuubueaIoQva4B-69" target="eeQnbSwuubueaIoQva4B-70" edge="1">
          <mxGeometry width="50" height="50" relative="1" as="geometry">
            <mxPoint x="-380" y="2680" as="sourcePoint" />
            <mxPoint x="-330" y="2630" as="targetPoint" />
          </mxGeometry>
        </mxCell>
        <mxCell id="eeQnbSwuubueaIoQva4B-72" value="Wallet" style="rounded=0;whiteSpace=wrap;html=1;" parent="1" vertex="1">
          <mxGeometry x="-310" y="2530" width="120" height="60" as="geometry" />
        </mxCell>
        <mxCell id="eeQnbSwuubueaIoQva4B-74" value="" style="endArrow=classic;html=1;rounded=0;entryX=0.5;entryY=0;entryDx=0;entryDy=0;exitX=0.5;exitY=1;exitDx=0;exitDy=0;" parent="1" source="eeQnbSwuubueaIoQva4B-61" target="eeQnbSwuubueaIoQva4B-69" edge="1">
          <mxGeometry width="50" height="50" relative="1" as="geometry">
            <mxPoint x="-290" y="2500" as="sourcePoint" />
            <mxPoint x="-240" y="2450" as="targetPoint" />
          </mxGeometry>
        </mxCell>
        <mxCell id="eeQnbSwuubueaIoQva4B-75" value="" style="endArrow=classic;html=1;rounded=0;entryX=0.5;entryY=0;entryDx=0;entryDy=0;exitX=0.5;exitY=1;exitDx=0;exitDy=0;" parent="1" source="eeQnbSwuubueaIoQva4B-61" target="eeQnbSwuubueaIoQva4B-72" edge="1">
          <mxGeometry width="50" height="50" relative="1" as="geometry">
            <mxPoint x="-280" y="2480" as="sourcePoint" />
            <mxPoint x="-230" y="2430" as="targetPoint" />
          </mxGeometry>
        </mxCell>
        <mxCell id="eeQnbSwuubueaIoQva4B-76" value="" style="shape=cylinder3;whiteSpace=wrap;html=1;boundedLbl=1;backgroundOutline=1;size=15;" parent="1" vertex="1">
          <mxGeometry x="-280" y="2720" width="60" height="80" as="geometry" />
        </mxCell>
        <mxCell id="eeQnbSwuubueaIoQva4B-77" style="edgeStyle=orthogonalEdgeStyle;rounded=0;orthogonalLoop=1;jettySize=auto;html=1;exitX=0.5;exitY=1;exitDx=0;exitDy=0;entryX=0.5;entryY=0;entryDx=0;entryDy=0;entryPerimeter=0;" parent="1" source="eeQnbSwuubueaIoQva4B-72" target="eeQnbSwuubueaIoQva4B-76" edge="1">
          <mxGeometry relative="1" as="geometry" />
        </mxCell>
        <mxCell id="eeQnbSwuubueaIoQva4B-78" value="Payment Executor" style="rounded=0;whiteSpace=wrap;html=1;" parent="1" vertex="1">
          <mxGeometry x="-615" y="2530" width="120" height="60" as="geometry" />
        </mxCell>
        <mxCell id="eeQnbSwuubueaIoQva4B-79" value="" style="endArrow=classic;html=1;rounded=0;entryX=0.5;entryY=0;entryDx=0;entryDy=0;" parent="1" target="eeQnbSwuubueaIoQva4B-78" edge="1">
          <mxGeometry width="50" height="50" relative="1" as="geometry">
            <mxPoint x="-430" y="2470" as="sourcePoint" />
            <mxPoint x="-540" y="2440" as="targetPoint" />
          </mxGeometry>
        </mxCell>
        <mxCell id="eeQnbSwuubueaIoQva4B-80" value="" style="rounded=0;whiteSpace=wrap;html=1;" parent="1" vertex="1">
          <mxGeometry x="-1030" y="2540" width="90" height="120" as="geometry" />
        </mxCell>
        <mxCell id="eeQnbSwuubueaIoQva4B-81" value="" style="dashed=0;outlineConnect=0;html=1;align=center;labelPosition=center;verticalLabelPosition=bottom;verticalAlign=top;shape=mxgraph.weblogos.paypal" parent="1" vertex="1">
          <mxGeometry x="-1010.6" y="2570" width="51.2" height="58" as="geometry" />
        </mxCell>
        <mxCell id="eeQnbSwuubueaIoQva4B-82" value="Payment Service Provider" style="text;html=1;strokeColor=none;fillColor=none;align=center;verticalAlign=middle;whiteSpace=wrap;rounded=0;" parent="1" vertex="1">
          <mxGeometry x="-1062.5" y="2500" width="155" height="30" as="geometry" />
        </mxCell>
        <mxCell id="eeQnbSwuubueaIoQva4B-84" value="" style="rounded=0;whiteSpace=wrap;html=1;" parent="1" vertex="1">
          <mxGeometry x="-1530" y="2550" width="170" height="120" as="geometry" />
        </mxCell>
        <mxCell id="eeQnbSwuubueaIoQva4B-83" value="" style="image;html=1;image=img/lib/clip_art/finance/Credit_Card_128x128.png" parent="1" vertex="1">
          <mxGeometry x="-1490" y="2570" width="80" height="80" as="geometry" />
        </mxCell>
        <mxCell id="eeQnbSwuubueaIoQva4B-85" value="Card schemes" style="text;html=1;strokeColor=none;fillColor=none;align=center;verticalAlign=middle;whiteSpace=wrap;rounded=0;" parent="1" vertex="1">
          <mxGeometry x="-1507.5" y="2510" width="125" height="30" as="geometry" />
        </mxCell>
        <mxCell id="eeQnbSwuubueaIoQva4B-86" style="edgeStyle=orthogonalEdgeStyle;rounded=0;orthogonalLoop=1;jettySize=auto;html=1;exitX=0;exitY=0.5;exitDx=0;exitDy=0;entryX=1.018;entryY=0.417;entryDx=0;entryDy=0;entryPerimeter=0;" parent="1" source="eeQnbSwuubueaIoQva4B-80" target="eeQnbSwuubueaIoQva4B-84" edge="1">
          <mxGeometry relative="1" as="geometry" />
        </mxCell>
        <mxCell id="eeQnbSwuubueaIoQva4B-87" value="" style="endArrow=classic;html=1;rounded=0;entryX=1;entryY=0.5;entryDx=0;entryDy=0;exitX=0;exitY=0.5;exitDx=0;exitDy=0;" parent="1" source="eeQnbSwuubueaIoQva4B-78" target="eeQnbSwuubueaIoQva4B-80" edge="1">
          <mxGeometry width="50" height="50" relative="1" as="geometry">
            <mxPoint x="-840" y="2580" as="sourcePoint" />
            <mxPoint x="-790" y="2530" as="targetPoint" />
          </mxGeometry>
        </mxCell>
        <mxCell id="eeQnbSwuubueaIoQva4B-89" value="Reconciliation" style="rounded=0;whiteSpace=wrap;html=1;" parent="1" vertex="1">
          <mxGeometry x="-800" y="2760" width="120" height="60" as="geometry" />
        </mxCell>
        <mxCell id="eeQnbSwuubueaIoQva4B-90" value="" style="endArrow=classic;html=1;rounded=0;exitX=0.5;exitY=1;exitDx=0;exitDy=0;entryX=0.007;entryY=0.619;entryDx=0;entryDy=0;entryPerimeter=0;" parent="1" source="eeQnbSwuubueaIoQva4B-80" target="eeQnbSwuubueaIoQva4B-89" edge="1">
          <mxGeometry width="50" height="50" relative="1" as="geometry">
            <mxPoint x="-990" y="2745" as="sourcePoint" />
            <mxPoint x="-940" y="2695" as="targetPoint" />
          </mxGeometry>
        </mxCell>
        <mxCell id="eeQnbSwuubueaIoQva4B-88" value="" style="whiteSpace=wrap;html=1;shape=mxgraph.basic.document" parent="1" vertex="1">
          <mxGeometry x="-907.5" y="2710" width="50" height="60" as="geometry" />
        </mxCell>
        <mxCell id="eeQnbSwuubueaIoQva4B-91" value="Settlement file" style="text;html=1;strokeColor=none;fillColor=none;align=center;verticalAlign=middle;whiteSpace=wrap;rounded=0;" parent="1" vertex="1">
          <mxGeometry x="-926.25" y="2780" width="87.5" height="30" as="geometry" />
        </mxCell>
        <mxCell id="eeQnbSwuubueaIoQva4B-93" value="" style="endArrow=classic;html=1;rounded=0;entryX=1;entryY=0.5;entryDx=0;entryDy=0;exitX=0;exitY=0;exitDx=0;exitDy=52.5;exitPerimeter=0;" parent="1" source="eeQnbSwuubueaIoQva4B-70" target="eeQnbSwuubueaIoQva4B-89" edge="1">
          <mxGeometry width="50" height="50" relative="1" as="geometry">
            <mxPoint x="-550" y="2810" as="sourcePoint" />
            <mxPoint x="-500" y="2760" as="targetPoint" />
          </mxGeometry>
        </mxCell>
        <mxCell id="eeQnbSwuubueaIoQva4B-94" value="" style="whiteSpace=wrap;html=1;shape=mxgraph.basic.document" parent="1" vertex="1">
          <mxGeometry x="-560" y="2750" width="50" height="60" as="geometry" />
        </mxCell>
        <mxCell id="eeQnbSwuubueaIoQva4B-95" value="Payment system" style="text;html=1;strokeColor=none;fillColor=none;align=center;verticalAlign=middle;whiteSpace=wrap;rounded=0;" parent="1" vertex="1">
          <mxGeometry x="-565" y="2820" width="60" height="30" as="geometry" />
        </mxCell>
        <mxCell id="uZK_VOWS7J6zkRI4oq8U-1" value="Primary" style="text;html=1;strokeColor=none;fillColor=none;align=center;verticalAlign=middle;whiteSpace=wrap;rounded=0;" parent="1" vertex="1">
          <mxGeometry x="-425" y="2810" width="60" height="30" as="geometry" />
        </mxCell>
        <mxCell id="uZK_VOWS7J6zkRI4oq8U-2" value="Primary" style="text;html=1;strokeColor=none;fillColor=none;align=center;verticalAlign=middle;whiteSpace=wrap;rounded=0;" parent="1" vertex="1">
          <mxGeometry x="-280" y="2810" width="60" height="30" as="geometry" />
        </mxCell>
        <mxCell id="uZK_VOWS7J6zkRI4oq8U-3" value="" style="image;sketch=0;aspect=fixed;html=1;points=[];align=center;fontSize=12;image=img/lib/mscae/Cache_Redis_Product.svg;" parent="1" vertex="1">
          <mxGeometry x="-495" y="2640" width="50" height="42" as="geometry" />
        </mxCell>
        <mxCell id="uZK_VOWS7J6zkRI4oq8U-4" value="" style="image;sketch=0;aspect=fixed;html=1;points=[];align=center;fontSize=12;image=img/lib/mscae/Cache_Redis_Product.svg;" parent="1" vertex="1">
          <mxGeometry x="-325" y="2640" width="50" height="42" as="geometry" />
        </mxCell>
        <mxCell id="uZK_VOWS7J6zkRI4oq8U-5" value="" style="endArrow=classic;startArrow=classic;html=1;rounded=0;entryX=0.25;entryY=1;entryDx=0;entryDy=0;exitX=0.483;exitY=0.037;exitDx=0;exitDy=0;exitPerimeter=0;" parent="1" source="uZK_VOWS7J6zkRI4oq8U-3" target="eeQnbSwuubueaIoQva4B-69" edge="1">
          <mxGeometry width="50" height="50" relative="1" as="geometry">
            <mxPoint x="-460" y="2650" as="sourcePoint" />
            <mxPoint x="-410" y="2600" as="targetPoint" />
          </mxGeometry>
        </mxCell>
        <mxCell id="uZK_VOWS7J6zkRI4oq8U-6" value="" style="endArrow=classic;startArrow=classic;html=1;rounded=0;" parent="1" edge="1">
          <mxGeometry width="50" height="50" relative="1" as="geometry">
            <mxPoint x="-300" y="2640" as="sourcePoint" />
            <mxPoint x="-250" y="2590" as="targetPoint" />
          </mxGeometry>
        </mxCell>
        <mxCell id="uZK_VOWS7J6zkRI4oq8U-7" value="If cache hit" style="text;html=1;strokeColor=none;fillColor=none;align=center;verticalAlign=middle;whiteSpace=wrap;rounded=0;" parent="1" vertex="1">
          <mxGeometry x="-520" y="2595" width="75" height="30" as="geometry" />
        </mxCell>
        <mxCell id="uZK_VOWS7J6zkRI4oq8U-8" value="If cache hit" style="text;html=1;strokeColor=none;fillColor=none;align=center;verticalAlign=middle;whiteSpace=wrap;rounded=0;" parent="1" vertex="1">
          <mxGeometry x="-337.5" y="2595" width="75" height="30" as="geometry" />
        </mxCell>
        <mxCell id="uZK_VOWS7J6zkRI4oq8U-9" value="If cache miss" style="text;html=1;strokeColor=none;fillColor=none;align=center;verticalAlign=middle;whiteSpace=wrap;rounded=0;" parent="1" vertex="1">
          <mxGeometry x="-390" y="2640" width="50" height="30" as="geometry" />
        </mxCell>
        <mxCell id="uZK_VOWS7J6zkRI4oq8U-10" value="If cache miss" style="text;html=1;strokeColor=none;fillColor=none;align=center;verticalAlign=middle;whiteSpace=wrap;rounded=0;" parent="1" vertex="1">
          <mxGeometry x="-240" y="2640" width="50" height="30" as="geometry" />
        </mxCell>
        <mxCell id="uZK_VOWS7J6zkRI4oq8U-11" value="" style="endArrow=classic;startArrow=classic;html=1;rounded=0;entryX=0.583;entryY=0.983;entryDx=0;entryDy=0;entryPerimeter=0;exitX=0.5;exitY=0;exitDx=0;exitDy=0;exitPerimeter=0;" parent="1" source="eeQnbSwuubueaIoQva4B-70" target="uZK_VOWS7J6zkRI4oq8U-3" edge="1">
          <mxGeometry width="50" height="50" relative="1" as="geometry">
            <mxPoint x="-480" y="2740" as="sourcePoint" />
            <mxPoint x="-430" y="2690" as="targetPoint" />
          </mxGeometry>
        </mxCell>
        <mxCell id="uZK_VOWS7J6zkRI4oq8U-13" value="Sync" style="edgeLabel;html=1;align=center;verticalAlign=middle;resizable=0;points=[];" parent="uZK_VOWS7J6zkRI4oq8U-11" vertex="1" connectable="0">
          <mxGeometry x="-0.0222" y="2" relative="1" as="geometry">
            <mxPoint as="offset" />
          </mxGeometry>
        </mxCell>
        <mxCell id="uZK_VOWS7J6zkRI4oq8U-12" value="" style="endArrow=classic;startArrow=classic;html=1;rounded=0;entryX=0.416;entryY=1.101;entryDx=0;entryDy=0;entryPerimeter=0;exitX=0.5;exitY=0;exitDx=0;exitDy=0;exitPerimeter=0;" parent="1" target="uZK_VOWS7J6zkRI4oq8U-4" edge="1">
          <mxGeometry width="50" height="50" relative="1" as="geometry">
            <mxPoint x="-250" y="2721" as="sourcePoint" />
            <mxPoint x="-320" y="2682" as="targetPoint" />
          </mxGeometry>
        </mxCell>
        <mxCell id="uZK_VOWS7J6zkRI4oq8U-14" value="Sync" style="edgeLabel;html=1;align=center;verticalAlign=middle;resizable=0;points=[];" parent="uZK_VOWS7J6zkRI4oq8U-12" vertex="1" connectable="0">
          <mxGeometry x="0.0966" y="-1" relative="1" as="geometry">
            <mxPoint as="offset" />
          </mxGeometry>
        </mxCell>
        <mxCell id="uZK_VOWS7J6zkRI4oq8U-15" value="" style="shape=cylinder3;whiteSpace=wrap;html=1;boundedLbl=1;backgroundOutline=1;size=15;" parent="1" vertex="1">
          <mxGeometry x="-545" y="2890" width="60" height="80" as="geometry" />
        </mxCell>
        <mxCell id="uZK_VOWS7J6zkRI4oq8U-16" value="" style="shape=cylinder3;whiteSpace=wrap;html=1;boundedLbl=1;backgroundOutline=1;size=15;" parent="1" vertex="1">
          <mxGeometry x="-397.5" y="2890" width="60" height="80" as="geometry" />
        </mxCell>
        <mxCell id="uZK_VOWS7J6zkRI4oq8U-17" value="Replica" style="text;html=1;strokeColor=none;fillColor=none;align=center;verticalAlign=middle;whiteSpace=wrap;rounded=0;" parent="1" vertex="1">
          <mxGeometry x="-545" y="2980" width="60" height="30" as="geometry" />
        </mxCell>
        <mxCell id="uZK_VOWS7J6zkRI4oq8U-18" value="Replica" style="text;html=1;strokeColor=none;fillColor=none;align=center;verticalAlign=middle;whiteSpace=wrap;rounded=0;" parent="1" vertex="1">
          <mxGeometry x="-397.5" y="2980" width="60" height="30" as="geometry" />
        </mxCell>
        <mxCell id="uZK_VOWS7J6zkRI4oq8U-21" value="" style="endArrow=classic;html=1;rounded=0;entryX=0.5;entryY=0;entryDx=0;entryDy=0;entryPerimeter=0;exitX=0.5;exitY=1;exitDx=0;exitDy=0;exitPerimeter=0;" parent="1" source="eeQnbSwuubueaIoQva4B-70" target="uZK_VOWS7J6zkRI4oq8U-15" edge="1">
          <mxGeometry width="50" height="50" relative="1" as="geometry">
            <mxPoint x="-490" y="2860" as="sourcePoint" />
            <mxPoint x="-440" y="2810" as="targetPoint" />
          </mxGeometry>
        </mxCell>
        <mxCell id="uZK_VOWS7J6zkRI4oq8U-24" value="Replicate" style="edgeLabel;html=1;align=center;verticalAlign=middle;resizable=0;points=[];" parent="uZK_VOWS7J6zkRI4oq8U-21" vertex="1" connectable="0">
          <mxGeometry x="0.2808" relative="1" as="geometry">
            <mxPoint y="-1" as="offset" />
          </mxGeometry>
        </mxCell>
        <mxCell id="uZK_VOWS7J6zkRI4oq8U-22" value="" style="endArrow=classic;html=1;rounded=0;entryX=0.5;entryY=0;entryDx=0;entryDy=0;entryPerimeter=0;exitX=0.5;exitY=1;exitDx=0;exitDy=0;exitPerimeter=0;" parent="1" source="eeQnbSwuubueaIoQva4B-76" target="uZK_VOWS7J6zkRI4oq8U-16" edge="1">
          <mxGeometry width="50" height="50" relative="1" as="geometry">
            <mxPoint x="-370" y="2850" as="sourcePoint" />
            <mxPoint x="-320" y="2800" as="targetPoint" />
          </mxGeometry>
        </mxCell>
        <mxCell id="uZK_VOWS7J6zkRI4oq8U-23" value="Replicate" style="edgeLabel;html=1;align=center;verticalAlign=middle;resizable=0;points=[];" parent="uZK_VOWS7J6zkRI4oq8U-22" vertex="1" connectable="0">
          <mxGeometry x="0.2945" relative="1" as="geometry">
            <mxPoint as="offset" />
          </mxGeometry>
        </mxCell>
        <mxCell id="jouAs4YN88GggbfPHZCA-1" value="DOCKER CONTAINER" style="text;html=1;strokeColor=none;fillColor=none;align=center;verticalAlign=middle;whiteSpace=wrap;rounded=0;" vertex="1" parent="1">
          <mxGeometry x="1255" y="2200" width="170" height="30" as="geometry" />
        </mxCell>
        <mxCell id="jouAs4YN88GggbfPHZCA-2" value="" style="rounded=0;whiteSpace=wrap;html=1;" vertex="1" parent="1">
          <mxGeometry x="785" y="2230" width="640" height="660" as="geometry" />
        </mxCell>
        <mxCell id="jouAs4YN88GggbfPHZCA-3" style="edgeStyle=orthogonalEdgeStyle;rounded=0;orthogonalLoop=1;jettySize=auto;html=1;exitX=0.5;exitY=1;exitDx=0;exitDy=0;entryX=0.5;entryY=0;entryDx=0;entryDy=0;" edge="1" parent="1" source="jouAs4YN88GggbfPHZCA-4" target="jouAs4YN88GggbfPHZCA-6">
          <mxGeometry relative="1" as="geometry" />
        </mxCell>
        <mxCell id="jouAs4YN88GggbfPHZCA-4" value="REST API" style="rounded=0;whiteSpace=wrap;html=1;" vertex="1" parent="1">
          <mxGeometry x="1045" y="2300" width="90" height="40" as="geometry" />
        </mxCell>
        <mxCell id="jouAs4YN88GggbfPHZCA-5" value="LOAN SERVICE" style="text;html=1;strokeColor=none;fillColor=none;align=center;verticalAlign=middle;whiteSpace=wrap;rounded=0;" vertex="1" parent="1">
          <mxGeometry x="1020" y="2240" width="170" height="30" as="geometry" />
        </mxCell>
        <mxCell id="jouAs4YN88GggbfPHZCA-6" value="Controller" style="rounded=1;whiteSpace=wrap;html=1;" vertex="1" parent="1">
          <mxGeometry x="1030" y="2430" width="120" height="60" as="geometry" />
        </mxCell>
        <mxCell id="jouAs4YN88GggbfPHZCA-7" value="VIEW LOAN" style="rounded=0;whiteSpace=wrap;html=1;" vertex="1" parent="1">
          <mxGeometry x="1065" y="2550" width="120" height="60" as="geometry" />
        </mxCell>
        <mxCell id="jouAs4YN88GggbfPHZCA-9" value="" style="endArrow=classic;html=1;rounded=0;entryX=0;entryY=0;entryDx=0;entryDy=15;entryPerimeter=0;" edge="1" parent="1" source="jouAs4YN88GggbfPHZCA-7" target="jouAs4YN88GggbfPHZCA-13">
          <mxGeometry width="50" height="50" relative="1" as="geometry">
            <mxPoint x="1135" y="2700" as="sourcePoint" />
            <mxPoint x="1119" y="2740" as="targetPoint" />
          </mxGeometry>
        </mxCell>
        <mxCell id="jouAs4YN88GggbfPHZCA-10" value="CREATE LOAN" style="rounded=0;whiteSpace=wrap;html=1;" vertex="1" parent="1">
          <mxGeometry x="1205" y="2550" width="120" height="60" as="geometry" />
        </mxCell>
        <mxCell id="jouAs4YN88GggbfPHZCA-11" value="" style="endArrow=classic;html=1;rounded=0;entryX=0.5;entryY=0;entryDx=0;entryDy=0;exitX=0.5;exitY=1;exitDx=0;exitDy=0;" edge="1" parent="1" source="jouAs4YN88GggbfPHZCA-6" target="jouAs4YN88GggbfPHZCA-7">
          <mxGeometry width="50" height="50" relative="1" as="geometry">
            <mxPoint x="1225" y="2520" as="sourcePoint" />
            <mxPoint x="1275" y="2470" as="targetPoint" />
          </mxGeometry>
        </mxCell>
        <mxCell id="jouAs4YN88GggbfPHZCA-12" value="" style="endArrow=classic;html=1;rounded=0;entryX=0.5;entryY=0;entryDx=0;entryDy=0;exitX=0.5;exitY=1;exitDx=0;exitDy=0;" edge="1" parent="1" source="jouAs4YN88GggbfPHZCA-6" target="jouAs4YN88GggbfPHZCA-10">
          <mxGeometry width="50" height="50" relative="1" as="geometry">
            <mxPoint x="1235" y="2500" as="sourcePoint" />
            <mxPoint x="1285" y="2450" as="targetPoint" />
          </mxGeometry>
        </mxCell>
        <mxCell id="jouAs4YN88GggbfPHZCA-13" value="" style="shape=cylinder3;whiteSpace=wrap;html=1;boundedLbl=1;backgroundOutline=1;size=15;" vertex="1" parent="1">
          <mxGeometry x="1235" y="2740" width="60" height="80" as="geometry" />
        </mxCell>
        <mxCell id="jouAs4YN88GggbfPHZCA-14" style="edgeStyle=orthogonalEdgeStyle;rounded=0;orthogonalLoop=1;jettySize=auto;html=1;exitX=0.5;exitY=1;exitDx=0;exitDy=0;entryX=0.5;entryY=0;entryDx=0;entryDy=0;entryPerimeter=0;" edge="1" parent="1" source="jouAs4YN88GggbfPHZCA-10" target="jouAs4YN88GggbfPHZCA-13">
          <mxGeometry relative="1" as="geometry" />
        </mxCell>
        <mxCell id="jouAs4YN88GggbfPHZCA-21" value="Primary" style="text;html=1;strokeColor=none;fillColor=none;align=center;verticalAlign=middle;whiteSpace=wrap;rounded=0;" vertex="1" parent="1">
          <mxGeometry x="1235" y="2830" width="60" height="30" as="geometry" />
        </mxCell>
        <mxCell id="jouAs4YN88GggbfPHZCA-22" value="" style="image;sketch=0;aspect=fixed;html=1;points=[];align=center;fontSize=12;image=img/lib/mscae/Cache_Redis_Product.svg;" vertex="1" parent="1">
          <mxGeometry x="1070" y="2718" width="50" height="42" as="geometry" />
        </mxCell>
        <mxCell id="jouAs4YN88GggbfPHZCA-24" value="" style="endArrow=classic;startArrow=classic;html=1;rounded=0;entryX=0.25;entryY=1;entryDx=0;entryDy=0;exitX=0.483;exitY=0.037;exitDx=0;exitDy=0;exitPerimeter=0;" edge="1" parent="1" source="jouAs4YN88GggbfPHZCA-22" target="jouAs4YN88GggbfPHZCA-7">
          <mxGeometry width="50" height="50" relative="1" as="geometry">
            <mxPoint x="1055" y="2670" as="sourcePoint" />
            <mxPoint x="1105" y="2620" as="targetPoint" />
          </mxGeometry>
        </mxCell>
        <mxCell id="jouAs4YN88GggbfPHZCA-28" value="If cache miss" style="text;html=1;strokeColor=none;fillColor=none;align=center;verticalAlign=middle;whiteSpace=wrap;rounded=0;" vertex="1" parent="1">
          <mxGeometry x="1150" y="2652" width="50" height="30" as="geometry" />
        </mxCell>
        <mxCell id="jouAs4YN88GggbfPHZCA-29" value="If cache miss" style="text;html=1;strokeColor=none;fillColor=none;align=center;verticalAlign=middle;whiteSpace=wrap;rounded=0;" vertex="1" parent="1">
          <mxGeometry x="1275" y="2660" width="50" height="30" as="geometry" />
        </mxCell>
        <mxCell id="jouAs4YN88GggbfPHZCA-30" value="" style="endArrow=classic;startArrow=classic;html=1;rounded=0;entryX=0.583;entryY=0.983;entryDx=0;entryDy=0;entryPerimeter=0;exitX=0;exitY=0;exitDx=0;exitDy=27.5;exitPerimeter=0;" edge="1" parent="1" source="jouAs4YN88GggbfPHZCA-13" target="jouAs4YN88GggbfPHZCA-22">
          <mxGeometry width="50" height="50" relative="1" as="geometry">
            <mxPoint x="1119" y="2740" as="sourcePoint" />
            <mxPoint x="1085" y="2710" as="targetPoint" />
          </mxGeometry>
        </mxCell>
        <mxCell id="jouAs4YN88GggbfPHZCA-31" value="Sync" style="edgeLabel;html=1;align=center;verticalAlign=middle;resizable=0;points=[];" vertex="1" connectable="0" parent="jouAs4YN88GggbfPHZCA-30">
          <mxGeometry x="-0.0222" y="2" relative="1" as="geometry">
            <mxPoint as="offset" />
          </mxGeometry>
        </mxCell>
        <mxCell id="jouAs4YN88GggbfPHZCA-35" value="" style="shape=cylinder3;whiteSpace=wrap;html=1;boundedLbl=1;backgroundOutline=1;size=15;" vertex="1" parent="1">
          <mxGeometry x="1117.5" y="2910" width="60" height="80" as="geometry" />
        </mxCell>
        <mxCell id="jouAs4YN88GggbfPHZCA-37" value="Replica" style="text;html=1;strokeColor=none;fillColor=none;align=center;verticalAlign=middle;whiteSpace=wrap;rounded=0;" vertex="1" parent="1">
          <mxGeometry x="1117.5" y="3000" width="60" height="30" as="geometry" />
        </mxCell>
        <mxCell id="jouAs4YN88GggbfPHZCA-40" value="" style="endArrow=classic;html=1;rounded=0;entryX=0.5;entryY=0;entryDx=0;entryDy=0;entryPerimeter=0;exitX=0.5;exitY=1;exitDx=0;exitDy=0;exitPerimeter=0;" edge="1" parent="1" source="jouAs4YN88GggbfPHZCA-13" target="jouAs4YN88GggbfPHZCA-35">
          <mxGeometry width="50" height="50" relative="1" as="geometry">
            <mxPoint x="1145" y="2870" as="sourcePoint" />
            <mxPoint x="1195" y="2820" as="targetPoint" />
          </mxGeometry>
        </mxCell>
        <mxCell id="jouAs4YN88GggbfPHZCA-41" value="Replicate" style="edgeLabel;html=1;align=center;verticalAlign=middle;resizable=0;points=[];" vertex="1" connectable="0" parent="jouAs4YN88GggbfPHZCA-40">
          <mxGeometry x="0.2945" relative="1" as="geometry">
            <mxPoint as="offset" />
          </mxGeometry>
        </mxCell>
        <mxCell id="jouAs4YN88GggbfPHZCA-42" value="" style="endArrow=none;dashed=1;html=1;rounded=0;entryX=0.5;entryY=1;entryDx=0;entryDy=0;exitX=0.5;exitY=0;exitDx=0;exitDy=0;" edge="1" parent="1" source="jouAs4YN88GggbfPHZCA-2" target="eeQnbSwuubueaIoQva4B-44">
          <mxGeometry width="50" height="50" relative="1" as="geometry">
            <mxPoint x="440" y="2140" as="sourcePoint" />
            <mxPoint x="490" y="2090" as="targetPoint" />
          </mxGeometry>
        </mxCell>
        <mxCell id="jouAs4YN88GggbfPHZCA-26" value="If cache hit" style="text;html=1;strokeColor=none;fillColor=none;align=center;verticalAlign=middle;whiteSpace=wrap;rounded=0;" vertex="1" parent="1">
          <mxGeometry x="1052.5" y="2652" width="75" height="30" as="geometry" />
        </mxCell>
        <mxCell id="jouAs4YN88GggbfPHZCA-53" value="DOCKER CONTAINER" style="text;html=1;strokeColor=none;fillColor=none;align=center;verticalAlign=middle;whiteSpace=wrap;rounded=0;" vertex="1" parent="1">
          <mxGeometry x="510" y="2220" width="170" height="30" as="geometry" />
        </mxCell>
        <mxCell id="jouAs4YN88GggbfPHZCA-54" value="" style="rounded=0;whiteSpace=wrap;html=1;" vertex="1" parent="1">
          <mxGeometry x="40" y="2250" width="640" height="660" as="geometry" />
        </mxCell>
        <mxCell id="jouAs4YN88GggbfPHZCA-55" style="edgeStyle=orthogonalEdgeStyle;rounded=0;orthogonalLoop=1;jettySize=auto;html=1;exitX=0.5;exitY=1;exitDx=0;exitDy=0;entryX=0.5;entryY=0;entryDx=0;entryDy=0;" edge="1" parent="1" source="jouAs4YN88GggbfPHZCA-56" target="jouAs4YN88GggbfPHZCA-58">
          <mxGeometry relative="1" as="geometry" />
        </mxCell>
        <mxCell id="jouAs4YN88GggbfPHZCA-56" value="REST API" style="rounded=0;whiteSpace=wrap;html=1;" vertex="1" parent="1">
          <mxGeometry x="300" y="2320" width="90" height="40" as="geometry" />
        </mxCell>
        <mxCell id="jouAs4YN88GggbfPHZCA-57" value="LOAN PAYMENT TRACKING" style="text;html=1;strokeColor=none;fillColor=none;align=center;verticalAlign=middle;whiteSpace=wrap;rounded=0;" vertex="1" parent="1">
          <mxGeometry x="275" y="2260" width="170" height="30" as="geometry" />
        </mxCell>
        <mxCell id="jouAs4YN88GggbfPHZCA-58" value="Controller" style="rounded=1;whiteSpace=wrap;html=1;" vertex="1" parent="1">
          <mxGeometry x="285" y="2450" width="120" height="60" as="geometry" />
        </mxCell>
        <mxCell id="jouAs4YN88GggbfPHZCA-60" value="" style="endArrow=classic;html=1;rounded=0;entryX=0;entryY=0;entryDx=0;entryDy=15;entryPerimeter=0;" edge="1" parent="1" target="jouAs4YN88GggbfPHZCA-64">
          <mxGeometry width="50" height="50" relative="1" as="geometry">
            <mxPoint x="398.8571428571431" y="2630" as="sourcePoint" />
            <mxPoint x="374" y="2760" as="targetPoint" />
          </mxGeometry>
        </mxCell>
        <mxCell id="jouAs4YN88GggbfPHZCA-65" style="edgeStyle=orthogonalEdgeStyle;rounded=0;orthogonalLoop=1;jettySize=auto;html=1;exitX=0.5;exitY=1;exitDx=0;exitDy=0;entryX=0.5;entryY=0;entryDx=0;entryDy=0;entryPerimeter=0;" edge="1" parent="1" target="jouAs4YN88GggbfPHZCA-64">
          <mxGeometry relative="1" as="geometry">
            <mxPoint x="520" y="2630" as="sourcePoint" />
          </mxGeometry>
        </mxCell>
        <mxCell id="jouAs4YN88GggbfPHZCA-66" value="LOAN PAYMENT TRACKING" style="rounded=0;whiteSpace=wrap;html=1;" vertex="1" parent="1">
          <mxGeometry x="165" y="2570" width="120" height="60" as="geometry" />
        </mxCell>
        <mxCell id="jouAs4YN88GggbfPHZCA-67" value="" style="endArrow=classic;html=1;rounded=0;entryX=0.5;entryY=0;entryDx=0;entryDy=0;" edge="1" parent="1" target="jouAs4YN88GggbfPHZCA-66">
          <mxGeometry width="50" height="50" relative="1" as="geometry">
            <mxPoint x="340" y="2510" as="sourcePoint" />
            <mxPoint x="230" y="2480" as="targetPoint" />
          </mxGeometry>
        </mxCell>
        <mxCell id="jouAs4YN88GggbfPHZCA-84" value="" style="shape=cylinder3;whiteSpace=wrap;html=1;boundedLbl=1;backgroundOutline=1;size=15;" vertex="1" parent="1">
          <mxGeometry x="195" y="2740" width="60" height="80" as="geometry" />
        </mxCell>
        <mxCell id="jouAs4YN88GggbfPHZCA-85" value="" style="endArrow=none;dashed=1;html=1;rounded=0;exitX=0.5;exitY=0;exitDx=0;exitDy=0;entryX=0.5;entryY=1;entryDx=0;entryDy=0;" edge="1" parent="1" source="jouAs4YN88GggbfPHZCA-54" target="eeQnbSwuubueaIoQva4B-43">
          <mxGeometry width="50" height="50" relative="1" as="geometry">
            <mxPoint x="660" y="2140" as="sourcePoint" />
            <mxPoint x="710" y="2090" as="targetPoint" />
          </mxGeometry>
        </mxCell>
        <mxCell id="jouAs4YN88GggbfPHZCA-45" value="" style="endArrow=classic;html=1;rounded=0;exitX=0;exitY=0.5;exitDx=0;exitDy=0;entryX=1;entryY=0.5;entryDx=0;entryDy=0;" edge="1" parent="1" source="jouAs4YN88GggbfPHZCA-66" target="eeQnbSwuubueaIoQva4B-50">
          <mxGeometry width="50" height="50" relative="1" as="geometry">
            <mxPoint x="-40" y="2490" as="sourcePoint" />
            <mxPoint x="10" y="2440" as="targetPoint" />
          </mxGeometry>
        </mxCell>
        <mxCell id="jouAs4YN88GggbfPHZCA-46" value="Request Ledger data to Update Paymemt tracking" style="edgeLabel;html=1;align=center;verticalAlign=middle;resizable=0;points=[];" vertex="1" connectable="0" parent="jouAs4YN88GggbfPHZCA-45">
          <mxGeometry x="-0.1134" y="2" relative="1" as="geometry">
            <mxPoint as="offset" />
          </mxGeometry>
        </mxCell>
        <mxCell id="jouAs4YN88GggbfPHZCA-90" value="" style="endArrow=classic;html=1;rounded=0;exitX=0.5;exitY=1;exitDx=0;exitDy=0;" edge="1" parent="1" source="jouAs4YN88GggbfPHZCA-66" target="jouAs4YN88GggbfPHZCA-84">
          <mxGeometry width="50" height="50" relative="1" as="geometry">
            <mxPoint x="240" y="2700" as="sourcePoint" />
            <mxPoint x="290" y="2650" as="targetPoint" />
          </mxGeometry>
        </mxCell>
        <mxCell id="jouAs4YN88GggbfPHZCA-91" value="" style="image;sketch=0;aspect=fixed;html=1;points=[];align=center;fontSize=12;image=img/lib/mscae/Cache_Redis_Product.svg;" vertex="1" parent="1">
          <mxGeometry x="340" y="2718" width="50" height="42" as="geometry" />
        </mxCell>
        <mxCell id="jouAs4YN88GggbfPHZCA-92" value="If cache miss" style="text;html=1;strokeColor=none;fillColor=none;align=center;verticalAlign=middle;whiteSpace=wrap;rounded=0;" vertex="1" parent="1">
          <mxGeometry x="200" y="2660" width="50" height="30" as="geometry" />
        </mxCell>
        <mxCell id="jouAs4YN88GggbfPHZCA-94" value="" style="endArrow=classic;html=1;rounded=0;exitX=0.5;exitY=1;exitDx=0;exitDy=0;" edge="1" parent="1" source="jouAs4YN88GggbfPHZCA-93" target="jouAs4YN88GggbfPHZCA-91">
          <mxGeometry width="50" height="50" relative="1" as="geometry">
            <mxPoint x="310" y="2700" as="sourcePoint" />
            <mxPoint x="360" y="2650" as="targetPoint" />
          </mxGeometry>
        </mxCell>
        <mxCell id="jouAs4YN88GggbfPHZCA-95" value="" style="endArrow=classic;html=1;rounded=0;exitX=0.5;exitY=1;exitDx=0;exitDy=0;" edge="1" parent="1" source="jouAs4YN88GggbfPHZCA-66" target="jouAs4YN88GggbfPHZCA-93">
          <mxGeometry width="50" height="50" relative="1" as="geometry">
            <mxPoint x="225" y="2630" as="sourcePoint" />
            <mxPoint x="340" y="2720" as="targetPoint" />
          </mxGeometry>
        </mxCell>
        <mxCell id="jouAs4YN88GggbfPHZCA-93" value="If cache hit" style="text;html=1;strokeColor=none;fillColor=none;align=center;verticalAlign=middle;whiteSpace=wrap;rounded=0;" vertex="1" parent="1">
          <mxGeometry x="250" y="2660" width="75" height="30" as="geometry" />
        </mxCell>
        <mxCell id="jouAs4YN88GggbfPHZCA-101" value="" style="endArrow=classic;html=1;rounded=0;exitX=0;exitY=0;exitDx=0;exitDy=0;entryX=1;entryY=0.5;entryDx=0;entryDy=0;" edge="1" parent="1" source="jouAs4YN88GggbfPHZCA-10" target="jouAs4YN88GggbfPHZCA-56">
          <mxGeometry width="50" height="50" relative="1" as="geometry">
            <mxPoint x="720" y="2410" as="sourcePoint" />
            <mxPoint x="770" y="2360" as="targetPoint" />
          </mxGeometry>
        </mxCell>
        <mxCell id="jouAs4YN88GggbfPHZCA-102" value="CREATE LOAN PAYMENT TRACKING" style="edgeLabel;html=1;align=center;verticalAlign=middle;resizable=0;points=[];" vertex="1" connectable="0" parent="jouAs4YN88GggbfPHZCA-101">
          <mxGeometry x="0.1611" y="-1" relative="1" as="geometry">
            <mxPoint as="offset" />
          </mxGeometry>
        </mxCell>
        <mxCell id="jouAs4YN88GggbfPHZCA-103" value="DEBT MANAGE" style="rounded=0;whiteSpace=wrap;html=1;" vertex="1" parent="1">
          <mxGeometry x="1241" y="1865" width="120" height="60" as="geometry" />
        </mxCell>
        <mxCell id="jouAs4YN88GggbfPHZCA-104" value="" style="endArrow=classic;html=1;rounded=0;exitX=0.5;exitY=1;exitDx=0;exitDy=0;entryX=0.5;entryY=0;entryDx=0;entryDy=0;" edge="1" parent="1" source="eeQnbSwuubueaIoQva4B-35" target="jouAs4YN88GggbfPHZCA-103">
          <mxGeometry width="50" height="50" relative="1" as="geometry">
            <mxPoint x="1280" y="1810" as="sourcePoint" />
            <mxPoint x="1330" y="1760" as="targetPoint" />
          </mxGeometry>
        </mxCell>
        <mxCell id="jouAs4YN88GggbfPHZCA-105" value="" style="endArrow=classic;startArrow=classic;html=1;rounded=0;exitX=1;exitY=0;exitDx=0;exitDy=52.5;exitPerimeter=0;" edge="1" parent="1" source="jouAs4YN88GggbfPHZCA-84" target="jouAs4YN88GggbfPHZCA-91">
          <mxGeometry width="50" height="50" relative="1" as="geometry">
            <mxPoint x="340" y="2810" as="sourcePoint" />
            <mxPoint x="390" y="2760" as="targetPoint" />
          </mxGeometry>
        </mxCell>
        <mxCell id="jouAs4YN88GggbfPHZCA-106" value="Sync" style="edgeLabel;html=1;align=center;verticalAlign=middle;resizable=0;points=[];" vertex="1" connectable="0" parent="jouAs4YN88GggbfPHZCA-105">
          <mxGeometry x="0.1135" y="-3" relative="1" as="geometry">
            <mxPoint as="offset" />
          </mxGeometry>
        </mxCell>
        <mxCell id="jouAs4YN88GggbfPHZCA-107" value="DOCKER CONTAINER" style="text;html=1;strokeColor=none;fillColor=none;align=center;verticalAlign=middle;whiteSpace=wrap;rounded=0;" vertex="1" parent="1">
          <mxGeometry x="1983.42" y="2220" width="170" height="30" as="geometry" />
        </mxCell>
        <mxCell id="jouAs4YN88GggbfPHZCA-108" value="" style="rounded=0;whiteSpace=wrap;html=1;" vertex="1" parent="1">
          <mxGeometry x="1513.42" y="2250" width="640" height="660" as="geometry" />
        </mxCell>
        <mxCell id="jouAs4YN88GggbfPHZCA-109" style="edgeStyle=orthogonalEdgeStyle;rounded=0;orthogonalLoop=1;jettySize=auto;html=1;exitX=0.5;exitY=1;exitDx=0;exitDy=0;entryX=0.5;entryY=0;entryDx=0;entryDy=0;" edge="1" parent="1" source="jouAs4YN88GggbfPHZCA-110" target="jouAs4YN88GggbfPHZCA-112">
          <mxGeometry relative="1" as="geometry" />
        </mxCell>
        <mxCell id="jouAs4YN88GggbfPHZCA-110" value="REST API" style="rounded=0;whiteSpace=wrap;html=1;" vertex="1" parent="1">
          <mxGeometry x="1773.42" y="2320" width="90" height="40" as="geometry" />
        </mxCell>
        <mxCell id="jouAs4YN88GggbfPHZCA-111" value="DEBT MANAGE SERVICE" style="text;html=1;strokeColor=none;fillColor=none;align=center;verticalAlign=middle;whiteSpace=wrap;rounded=0;" vertex="1" parent="1">
          <mxGeometry x="1748.42" y="2260" width="170" height="30" as="geometry" />
        </mxCell>
        <mxCell id="jouAs4YN88GggbfPHZCA-112" value="Controller" style="rounded=1;whiteSpace=wrap;html=1;" vertex="1" parent="1">
          <mxGeometry x="1758.42" y="2450" width="120" height="60" as="geometry" />
        </mxCell>
        <mxCell id="jouAs4YN88GggbfPHZCA-113" value="CREATE DEBT" style="rounded=0;whiteSpace=wrap;html=1;" vertex="1" parent="1">
          <mxGeometry x="1673.42" y="2568" width="120" height="60" as="geometry" />
        </mxCell>
        <mxCell id="jouAs4YN88GggbfPHZCA-114" value="" style="endArrow=classic;html=1;rounded=0;entryX=0.5;entryY=0;entryDx=0;entryDy=0;" edge="1" parent="1" target="jouAs4YN88GggbfPHZCA-113">
          <mxGeometry width="50" height="50" relative="1" as="geometry">
            <mxPoint x="1813.42" y="2510" as="sourcePoint" />
            <mxPoint x="1703.42" y="2480" as="targetPoint" />
          </mxGeometry>
        </mxCell>
        <mxCell id="jouAs4YN88GggbfPHZCA-115" value="Debt Notification" style="rounded=0;whiteSpace=wrap;html=1;" vertex="1" parent="1">
          <mxGeometry x="1960" y="2570" width="120" height="60" as="geometry" />
        </mxCell>
        <mxCell id="jouAs4YN88GggbfPHZCA-116" value="" style="endArrow=classic;html=1;rounded=0;entryX=0.5;entryY=0;entryDx=0;entryDy=0;" edge="1" parent="1" target="jouAs4YN88GggbfPHZCA-115">
          <mxGeometry width="50" height="50" relative="1" as="geometry">
            <mxPoint x="1813.42" y="2510" as="sourcePoint" />
            <mxPoint x="1783.42" y="2340" as="targetPoint" />
          </mxGeometry>
        </mxCell>
        <mxCell id="jouAs4YN88GggbfPHZCA-117" value="" style="shape=cylinder3;whiteSpace=wrap;html=1;boundedLbl=1;backgroundOutline=1;size=15;" vertex="1" parent="1">
          <mxGeometry x="1668.42" y="2740" width="60" height="80" as="geometry" />
        </mxCell>
        <mxCell id="jouAs4YN88GggbfPHZCA-118" value="" style="endArrow=classic;html=1;rounded=0;exitX=1;exitY=0.5;exitDx=0;exitDy=0;entryX=0;entryY=0.5;entryDx=0;entryDy=0;" edge="1" parent="1" source="jouAs4YN88GggbfPHZCA-113" target="jouAs4YN88GggbfPHZCA-115">
          <mxGeometry width="50" height="50" relative="1" as="geometry">
            <mxPoint x="1793.42" y="2610" as="sourcePoint" />
            <mxPoint x="1843.42" y="2560" as="targetPoint" />
          </mxGeometry>
        </mxCell>
        <mxCell id="jouAs4YN88GggbfPHZCA-119" value="create debt alert notification" style="edgeLabel;html=1;align=center;verticalAlign=middle;resizable=0;points=[];" vertex="1" connectable="0" parent="jouAs4YN88GggbfPHZCA-118">
          <mxGeometry x="-0.0439" y="-1" relative="1" as="geometry">
            <mxPoint x="3" y="19" as="offset" />
          </mxGeometry>
        </mxCell>
        <mxCell id="jouAs4YN88GggbfPHZCA-120" value="" style="endArrow=classic;html=1;rounded=0;exitX=0.5;exitY=1;exitDx=0;exitDy=0;" edge="1" parent="1" source="jouAs4YN88GggbfPHZCA-113" target="jouAs4YN88GggbfPHZCA-117">
          <mxGeometry width="50" height="50" relative="1" as="geometry">
            <mxPoint x="1713.42" y="2700" as="sourcePoint" />
            <mxPoint x="1763.42" y="2650" as="targetPoint" />
          </mxGeometry>
        </mxCell>
        <mxCell id="jouAs4YN88GggbfPHZCA-121" value="" style="image;sketch=0;aspect=fixed;html=1;points=[];align=center;fontSize=12;image=img/lib/mscae/Cache_Redis_Product.svg;" vertex="1" parent="1">
          <mxGeometry x="1540" y="2720" width="50" height="42" as="geometry" />
        </mxCell>
        <mxCell id="jouAs4YN88GggbfPHZCA-123" value="" style="endArrow=classic;html=1;rounded=0;exitX=0.5;exitY=1;exitDx=0;exitDy=0;" edge="1" parent="1" source="jouAs4YN88GggbfPHZCA-295" target="jouAs4YN88GggbfPHZCA-121">
          <mxGeometry width="50" height="50" relative="1" as="geometry">
            <mxPoint x="1783.42" y="2700" as="sourcePoint" />
            <mxPoint x="1833.42" y="2650" as="targetPoint" />
          </mxGeometry>
        </mxCell>
        <mxCell id="jouAs4YN88GggbfPHZCA-125" value="If cache hit" style="text;html=1;strokeColor=none;fillColor=none;align=center;verticalAlign=middle;whiteSpace=wrap;rounded=0;" vertex="1" parent="1">
          <mxGeometry x="1540" y="2670" width="75" height="30" as="geometry" />
        </mxCell>
        <mxCell id="jouAs4YN88GggbfPHZCA-127" value="" style="endArrow=classic;startArrow=classic;html=1;rounded=0;exitX=0;exitY=1;exitDx=0;exitDy=-15;exitPerimeter=0;" edge="1" parent="1" source="jouAs4YN88GggbfPHZCA-117" target="jouAs4YN88GggbfPHZCA-121">
          <mxGeometry width="50" height="50" relative="1" as="geometry">
            <mxPoint x="1813.42" y="2810" as="sourcePoint" />
            <mxPoint x="1863.42" y="2760" as="targetPoint" />
          </mxGeometry>
        </mxCell>
        <mxCell id="jouAs4YN88GggbfPHZCA-128" value="Sync" style="edgeLabel;html=1;align=center;verticalAlign=middle;resizable=0;points=[];" vertex="1" connectable="0" parent="jouAs4YN88GggbfPHZCA-127">
          <mxGeometry x="0.1135" y="-3" relative="1" as="geometry">
            <mxPoint as="offset" />
          </mxGeometry>
        </mxCell>
        <mxCell id="jouAs4YN88GggbfPHZCA-129" value="" style="endArrow=none;dashed=1;html=1;rounded=0;entryX=0.5;entryY=1;entryDx=0;entryDy=0;exitX=0.5;exitY=0;exitDx=0;exitDy=0;" edge="1" parent="1" source="jouAs4YN88GggbfPHZCA-108" target="jouAs4YN88GggbfPHZCA-103">
          <mxGeometry width="50" height="50" relative="1" as="geometry">
            <mxPoint x="1510" y="2190" as="sourcePoint" />
            <mxPoint x="1560" y="2140" as="targetPoint" />
          </mxGeometry>
        </mxCell>
        <mxCell id="jouAs4YN88GggbfPHZCA-130" value="" style="shape=cylinder3;whiteSpace=wrap;html=1;boundedLbl=1;backgroundOutline=1;size=15;" vertex="1" parent="1">
          <mxGeometry x="1540" y="2930" width="60" height="80" as="geometry" />
        </mxCell>
        <mxCell id="jouAs4YN88GggbfPHZCA-131" value="" style="endArrow=classic;html=1;rounded=0;entryX=0.5;entryY=0;entryDx=0;entryDy=0;entryPerimeter=0;exitX=0.5;exitY=1;exitDx=0;exitDy=0;exitPerimeter=0;" edge="1" parent="1" target="jouAs4YN88GggbfPHZCA-130" source="jouAs4YN88GggbfPHZCA-117">
          <mxGeometry width="50" height="50" relative="1" as="geometry">
            <mxPoint x="1800" y="2860" as="sourcePoint" />
            <mxPoint x="1730" y="2860" as="targetPoint" />
          </mxGeometry>
        </mxCell>
        <mxCell id="jouAs4YN88GggbfPHZCA-132" value="Replicate" style="edgeLabel;html=1;align=center;verticalAlign=middle;resizable=0;points=[];" vertex="1" connectable="0" parent="jouAs4YN88GggbfPHZCA-131">
          <mxGeometry x="0.2945" relative="1" as="geometry">
            <mxPoint as="offset" />
          </mxGeometry>
        </mxCell>
        <mxCell id="jouAs4YN88GggbfPHZCA-133" value="Replica" style="text;html=1;strokeColor=none;fillColor=none;align=center;verticalAlign=middle;whiteSpace=wrap;rounded=0;" vertex="1" parent="1">
          <mxGeometry x="1540" y="3010" width="60" height="30" as="geometry" />
        </mxCell>
        <mxCell id="jouAs4YN88GggbfPHZCA-134" value="Primary" style="text;html=1;strokeColor=none;fillColor=none;align=center;verticalAlign=middle;whiteSpace=wrap;rounded=0;" vertex="1" parent="1">
          <mxGeometry x="1668.42" y="2820" width="60" height="30" as="geometry" />
        </mxCell>
        <mxCell id="jouAs4YN88GggbfPHZCA-88" value="" style="endArrow=classic;html=1;rounded=0;exitX=1;exitY=0.5;exitDx=0;exitDy=0;entryX=1;entryY=0.5;entryDx=0;entryDy=0;" edge="1" parent="1" source="jouAs4YN88GggbfPHZCA-66" target="jouAs4YN88GggbfPHZCA-110">
          <mxGeometry width="50" height="50" relative="1" as="geometry">
            <mxPoint x="320" y="2610" as="sourcePoint" />
            <mxPoint x="405" y="2600" as="targetPoint" />
            <Array as="points">
              <mxPoint x="630" y="2600" />
              <mxPoint x="620" y="3170" />
              <mxPoint x="2190" y="3170" />
              <mxPoint x="2190" y="2340" />
            </Array>
          </mxGeometry>
        </mxCell>
        <mxCell id="jouAs4YN88GggbfPHZCA-135" value="Request tạo nợ nếu trễ hạn thanh toán" style="edgeLabel;html=1;align=center;verticalAlign=middle;resizable=0;points=[];" vertex="1" connectable="0" parent="jouAs4YN88GggbfPHZCA-88">
          <mxGeometry x="-0.9262" y="-1" relative="1" as="geometry">
            <mxPoint as="offset" />
          </mxGeometry>
        </mxCell>
        <mxCell id="jouAs4YN88GggbfPHZCA-136" value="DOCKER CONTAINER" style="text;html=1;strokeColor=none;fillColor=none;align=center;verticalAlign=middle;whiteSpace=wrap;rounded=0;" vertex="1" parent="1">
          <mxGeometry x="2740" y="2220" width="170" height="30" as="geometry" />
        </mxCell>
        <mxCell id="jouAs4YN88GggbfPHZCA-137" value="" style="rounded=0;whiteSpace=wrap;html=1;" vertex="1" parent="1">
          <mxGeometry x="2270" y="2250" width="640" height="660" as="geometry" />
        </mxCell>
        <mxCell id="jouAs4YN88GggbfPHZCA-138" style="edgeStyle=orthogonalEdgeStyle;rounded=0;orthogonalLoop=1;jettySize=auto;html=1;exitX=0.5;exitY=1;exitDx=0;exitDy=0;entryX=0.5;entryY=0;entryDx=0;entryDy=0;" edge="1" parent="1" source="jouAs4YN88GggbfPHZCA-139" target="jouAs4YN88GggbfPHZCA-141">
          <mxGeometry relative="1" as="geometry" />
        </mxCell>
        <mxCell id="jouAs4YN88GggbfPHZCA-139" value="REST API" style="rounded=0;whiteSpace=wrap;html=1;" vertex="1" parent="1">
          <mxGeometry x="2530" y="2320" width="90" height="40" as="geometry" />
        </mxCell>
        <mxCell id="jouAs4YN88GggbfPHZCA-140" value="LENDERS SERVICE" style="text;html=1;strokeColor=none;fillColor=none;align=center;verticalAlign=middle;whiteSpace=wrap;rounded=0;" vertex="1" parent="1">
          <mxGeometry x="2505" y="2260" width="170" height="30" as="geometry" />
        </mxCell>
        <mxCell id="jouAs4YN88GggbfPHZCA-141" value="Controller" style="rounded=1;whiteSpace=wrap;html=1;" vertex="1" parent="1">
          <mxGeometry x="2515" y="2450" width="120" height="60" as="geometry" />
        </mxCell>
        <mxCell id="jouAs4YN88GggbfPHZCA-143" value="" style="endArrow=classic;html=1;rounded=0;entryX=0.5;entryY=0;entryDx=0;entryDy=0;" edge="1" parent="1">
          <mxGeometry width="50" height="50" relative="1" as="geometry">
            <mxPoint x="2570" y="2510" as="sourcePoint" />
            <mxPoint x="2455" y="2570" as="targetPoint" />
          </mxGeometry>
        </mxCell>
        <mxCell id="jouAs4YN88GggbfPHZCA-162" value="" style="endArrow=none;dashed=1;html=1;rounded=0;entryX=0.5;entryY=1;entryDx=0;entryDy=0;exitX=0.5;exitY=0;exitDx=0;exitDy=0;" edge="1" parent="1" source="jouAs4YN88GggbfPHZCA-137" target="eeQnbSwuubueaIoQva4B-45">
          <mxGeometry width="50" height="50" relative="1" as="geometry">
            <mxPoint x="1910" y="2070" as="sourcePoint" />
            <mxPoint x="1960" y="2020" as="targetPoint" />
          </mxGeometry>
        </mxCell>
        <mxCell id="jouAs4YN88GggbfPHZCA-163" value="LOAN REQUEST RECEIVER" style="rounded=0;whiteSpace=wrap;html=1;" vertex="1" parent="1">
          <mxGeometry x="2380" y="2580" width="120" height="60" as="geometry" />
        </mxCell>
        <mxCell id="jouAs4YN88GggbfPHZCA-164" value="LOGIN" style="rounded=0;whiteSpace=wrap;html=1;" vertex="1" parent="1">
          <mxGeometry x="2550" y="2580" width="120" height="60" as="geometry" />
        </mxCell>
        <mxCell id="jouAs4YN88GggbfPHZCA-165" value="" style="endArrow=classic;html=1;rounded=0;exitX=0.5;exitY=1;exitDx=0;exitDy=0;entryX=0.5;entryY=0;entryDx=0;entryDy=0;" edge="1" parent="1" source="jouAs4YN88GggbfPHZCA-141" target="jouAs4YN88GggbfPHZCA-164">
          <mxGeometry width="50" height="50" relative="1" as="geometry">
            <mxPoint x="2730" y="2530" as="sourcePoint" />
            <mxPoint x="2780" y="2480" as="targetPoint" />
          </mxGeometry>
        </mxCell>
        <mxCell id="jouAs4YN88GggbfPHZCA-166" value="CRUD LENDERS" style="rounded=0;whiteSpace=wrap;html=1;" vertex="1" parent="1">
          <mxGeometry x="2740" y="2580" width="120" height="60" as="geometry" />
        </mxCell>
        <mxCell id="jouAs4YN88GggbfPHZCA-167" value="" style="shape=cylinder3;whiteSpace=wrap;html=1;boundedLbl=1;backgroundOutline=1;size=15;" vertex="1" parent="1">
          <mxGeometry x="2770" y="2770" width="60" height="80" as="geometry" />
        </mxCell>
        <mxCell id="jouAs4YN88GggbfPHZCA-168" value="" style="endArrow=classic;html=1;rounded=0;exitX=0.5;exitY=1;exitDx=0;exitDy=0;entryX=0.5;entryY=0;entryDx=0;entryDy=0;entryPerimeter=0;" edge="1" parent="1" source="jouAs4YN88GggbfPHZCA-166" target="jouAs4YN88GggbfPHZCA-167">
          <mxGeometry width="50" height="50" relative="1" as="geometry">
            <mxPoint x="2820" y="2750" as="sourcePoint" />
            <mxPoint x="2870" y="2700" as="targetPoint" />
          </mxGeometry>
        </mxCell>
        <mxCell id="jouAs4YN88GggbfPHZCA-178" value="If cache miss" style="edgeLabel;html=1;align=center;verticalAlign=middle;resizable=0;points=[];" vertex="1" connectable="0" parent="jouAs4YN88GggbfPHZCA-168">
          <mxGeometry x="-0.0192" y="2" relative="1" as="geometry">
            <mxPoint as="offset" />
          </mxGeometry>
        </mxCell>
        <mxCell id="jouAs4YN88GggbfPHZCA-169" value="" style="endArrow=classic;html=1;rounded=0;exitX=0.5;exitY=1;exitDx=0;exitDy=0;entryX=0.329;entryY=-0.005;entryDx=0;entryDy=0;entryPerimeter=0;" edge="1" parent="1" source="jouAs4YN88GggbfPHZCA-164" target="jouAs4YN88GggbfPHZCA-167">
          <mxGeometry width="50" height="50" relative="1" as="geometry">
            <mxPoint x="2750" y="2770" as="sourcePoint" />
            <mxPoint x="2800" y="2720" as="targetPoint" />
          </mxGeometry>
        </mxCell>
        <mxCell id="jouAs4YN88GggbfPHZCA-177" value="if cache miss" style="edgeLabel;html=1;align=center;verticalAlign=middle;resizable=0;points=[];" vertex="1" connectable="0" parent="jouAs4YN88GggbfPHZCA-169">
          <mxGeometry x="-0.0738" relative="1" as="geometry">
            <mxPoint as="offset" />
          </mxGeometry>
        </mxCell>
        <mxCell id="jouAs4YN88GggbfPHZCA-170" value="" style="endArrow=classic;html=1;rounded=0;exitX=0.5;exitY=1;exitDx=0;exitDy=0;entryX=0.5;entryY=0;entryDx=0;entryDy=0;" edge="1" parent="1" source="jouAs4YN88GggbfPHZCA-141" target="jouAs4YN88GggbfPHZCA-166">
          <mxGeometry width="50" height="50" relative="1" as="geometry">
            <mxPoint x="2720" y="2560" as="sourcePoint" />
            <mxPoint x="2770" y="2510" as="targetPoint" />
          </mxGeometry>
        </mxCell>
        <mxCell id="jouAs4YN88GggbfPHZCA-171" value="" style="shape=cylinder3;whiteSpace=wrap;html=1;boundedLbl=1;backgroundOutline=1;size=15;" vertex="1" parent="1">
          <mxGeometry x="2410" y="2750" width="60" height="80" as="geometry" />
        </mxCell>
        <mxCell id="jouAs4YN88GggbfPHZCA-172" value="" style="endArrow=classic;html=1;rounded=0;exitX=0.5;exitY=1;exitDx=0;exitDy=0;entryX=0.5;entryY=0;entryDx=0;entryDy=0;entryPerimeter=0;" edge="1" parent="1" source="jouAs4YN88GggbfPHZCA-163" target="jouAs4YN88GggbfPHZCA-171">
          <mxGeometry width="50" height="50" relative="1" as="geometry">
            <mxPoint x="2480" y="2740" as="sourcePoint" />
            <mxPoint x="2530" y="2690" as="targetPoint" />
          </mxGeometry>
        </mxCell>
        <mxCell id="jouAs4YN88GggbfPHZCA-195" value="If cache miss" style="edgeLabel;html=1;align=center;verticalAlign=middle;resizable=0;points=[];" vertex="1" connectable="0" parent="jouAs4YN88GggbfPHZCA-172">
          <mxGeometry x="0.0909" y="2" relative="1" as="geometry">
            <mxPoint as="offset" />
          </mxGeometry>
        </mxCell>
        <mxCell id="jouAs4YN88GggbfPHZCA-173" value="" style="image;sketch=0;aspect=fixed;html=1;points=[];align=center;fontSize=12;image=img/lib/mscae/Cache_Redis_Product.svg;" vertex="1" parent="1">
          <mxGeometry x="2585" y="2720" width="50" height="42" as="geometry" />
        </mxCell>
        <mxCell id="jouAs4YN88GggbfPHZCA-174" value="" style="endArrow=classic;html=1;rounded=0;exitX=0.5;exitY=1;exitDx=0;exitDy=0;entryX=0.49;entryY=0;entryDx=0;entryDy=0;entryPerimeter=0;" edge="1" parent="1" source="jouAs4YN88GggbfPHZCA-175" target="jouAs4YN88GggbfPHZCA-173">
          <mxGeometry width="50" height="50" relative="1" as="geometry">
            <mxPoint x="2350.42" y="2722" as="sourcePoint" />
            <mxPoint x="2380" y="2745" as="targetPoint" />
          </mxGeometry>
        </mxCell>
        <mxCell id="jouAs4YN88GggbfPHZCA-176" value="" style="endArrow=classic;html=1;rounded=0;exitX=0.5;exitY=1;exitDx=0;exitDy=0;entryX=0.49;entryY=0;entryDx=0;entryDy=0;entryPerimeter=0;" edge="1" parent="1" source="jouAs4YN88GggbfPHZCA-164" target="jouAs4YN88GggbfPHZCA-175">
          <mxGeometry width="50" height="50" relative="1" as="geometry">
            <mxPoint x="2610" y="2640" as="sourcePoint" />
            <mxPoint x="2610" y="2720" as="targetPoint" />
          </mxGeometry>
        </mxCell>
        <mxCell id="jouAs4YN88GggbfPHZCA-175" value="If cache hit" style="text;html=1;strokeColor=none;fillColor=none;align=center;verticalAlign=middle;whiteSpace=wrap;rounded=0;" vertex="1" parent="1">
          <mxGeometry x="2572.5" y="2670" width="75" height="30" as="geometry" />
        </mxCell>
        <mxCell id="jouAs4YN88GggbfPHZCA-179" value="" style="endArrow=classic;startArrow=classic;html=1;rounded=0;exitX=0;exitY=0;exitDx=0;exitDy=52.5;exitPerimeter=0;" edge="1" parent="1" source="jouAs4YN88GggbfPHZCA-167" target="jouAs4YN88GggbfPHZCA-173">
          <mxGeometry width="50" height="50" relative="1" as="geometry">
            <mxPoint x="2670" y="2830" as="sourcePoint" />
            <mxPoint x="2720" y="2780" as="targetPoint" />
          </mxGeometry>
        </mxCell>
        <mxCell id="jouAs4YN88GggbfPHZCA-186" value="Sync" style="edgeLabel;html=1;align=center;verticalAlign=middle;resizable=0;points=[];" vertex="1" connectable="0" parent="jouAs4YN88GggbfPHZCA-179">
          <mxGeometry x="0.135" relative="1" as="geometry">
            <mxPoint as="offset" />
          </mxGeometry>
        </mxCell>
        <mxCell id="jouAs4YN88GggbfPHZCA-180" value="" style="image;sketch=0;aspect=fixed;html=1;points=[];align=center;fontSize=12;image=img/lib/mscae/Cache_Redis_Product.svg;" vertex="1" parent="1">
          <mxGeometry x="2950" y="2738" width="50" height="42" as="geometry" />
        </mxCell>
        <mxCell id="jouAs4YN88GggbfPHZCA-181" value="" style="endArrow=classic;html=1;rounded=0;exitX=0.5;exitY=1;exitDx=0;exitDy=0;entryX=0.065;entryY=-0.042;entryDx=0;entryDy=0;entryPerimeter=0;" edge="1" parent="1" source="jouAs4YN88GggbfPHZCA-166" target="jouAs4YN88GggbfPHZCA-180">
          <mxGeometry width="50" height="50" relative="1" as="geometry">
            <mxPoint x="2880" y="2690" as="sourcePoint" />
            <mxPoint x="2930" y="2640" as="targetPoint" />
          </mxGeometry>
        </mxCell>
        <mxCell id="jouAs4YN88GggbfPHZCA-182" value="If ache hit" style="edgeLabel;html=1;align=center;verticalAlign=middle;resizable=0;points=[];" vertex="1" connectable="0" parent="jouAs4YN88GggbfPHZCA-181">
          <mxGeometry x="0.1332" y="-2" relative="1" as="geometry">
            <mxPoint as="offset" />
          </mxGeometry>
        </mxCell>
        <mxCell id="jouAs4YN88GggbfPHZCA-183" value="" style="endArrow=classic;startArrow=classic;html=1;rounded=0;exitX=1;exitY=0.5;exitDx=0;exitDy=0;exitPerimeter=0;entryX=-0.035;entryY=0.673;entryDx=0;entryDy=0;entryPerimeter=0;" edge="1" parent="1" source="jouAs4YN88GggbfPHZCA-167" target="jouAs4YN88GggbfPHZCA-180">
          <mxGeometry width="50" height="50" relative="1" as="geometry">
            <mxPoint x="2860" y="2840" as="sourcePoint" />
            <mxPoint x="2910" y="2790" as="targetPoint" />
          </mxGeometry>
        </mxCell>
        <mxCell id="jouAs4YN88GggbfPHZCA-184" value="Sync" style="edgeLabel;html=1;align=center;verticalAlign=middle;resizable=0;points=[];" vertex="1" connectable="0" parent="jouAs4YN88GggbfPHZCA-183">
          <mxGeometry x="-0.0467" y="2" relative="1" as="geometry">
            <mxPoint as="offset" />
          </mxGeometry>
        </mxCell>
        <mxCell id="jouAs4YN88GggbfPHZCA-185" value="" style="shape=cylinder3;whiteSpace=wrap;html=1;boundedLbl=1;backgroundOutline=1;size=15;" vertex="1" parent="1">
          <mxGeometry x="2720" y="2940" width="60" height="80" as="geometry" />
        </mxCell>
        <mxCell id="jouAs4YN88GggbfPHZCA-187" value="" style="endArrow=classic;html=1;rounded=0;entryX=0.5;entryY=0;entryDx=0;entryDy=0;entryPerimeter=0;exitX=0.5;exitY=1;exitDx=0;exitDy=0;exitPerimeter=0;" edge="1" parent="1" source="jouAs4YN88GggbfPHZCA-167" target="jouAs4YN88GggbfPHZCA-185">
          <mxGeometry width="50" height="50" relative="1" as="geometry">
            <mxPoint x="2850" y="2910" as="sourcePoint" />
            <mxPoint x="2900" y="2860" as="targetPoint" />
          </mxGeometry>
        </mxCell>
        <mxCell id="jouAs4YN88GggbfPHZCA-188" value="Replicate" style="edgeLabel;html=1;align=center;verticalAlign=middle;resizable=0;points=[];" vertex="1" connectable="0" parent="jouAs4YN88GggbfPHZCA-187">
          <mxGeometry x="-0.1061" y="2" relative="1" as="geometry">
            <mxPoint as="offset" />
          </mxGeometry>
        </mxCell>
        <mxCell id="jouAs4YN88GggbfPHZCA-189" value="Primary" style="text;html=1;strokeColor=none;fillColor=none;align=center;verticalAlign=middle;whiteSpace=wrap;rounded=0;" vertex="1" parent="1">
          <mxGeometry x="2770" y="2850" width="60" height="30" as="geometry" />
        </mxCell>
        <mxCell id="jouAs4YN88GggbfPHZCA-190" value="Replica" style="text;html=1;strokeColor=none;fillColor=none;align=center;verticalAlign=middle;whiteSpace=wrap;rounded=0;" vertex="1" parent="1">
          <mxGeometry x="2720" y="3040" width="60" height="30" as="geometry" />
        </mxCell>
        <mxCell id="jouAs4YN88GggbfPHZCA-191" value="" style="image;sketch=0;aspect=fixed;html=1;points=[];align=center;fontSize=12;image=img/lib/mscae/Cache_Redis_Product.svg;" vertex="1" parent="1">
          <mxGeometry x="2300" y="2769" width="50" height="42" as="geometry" />
        </mxCell>
        <mxCell id="jouAs4YN88GggbfPHZCA-193" value="" style="endArrow=classic;html=1;rounded=0;exitX=0.5;exitY=1;exitDx=0;exitDy=0;" edge="1" parent="1" source="jouAs4YN88GggbfPHZCA-163" target="jouAs4YN88GggbfPHZCA-191">
          <mxGeometry width="50" height="50" relative="1" as="geometry">
            <mxPoint x="2310" y="2680" as="sourcePoint" />
            <mxPoint x="2360" y="2630" as="targetPoint" />
          </mxGeometry>
        </mxCell>
        <mxCell id="jouAs4YN88GggbfPHZCA-194" value="If cache hit" style="edgeLabel;html=1;align=center;verticalAlign=middle;resizable=0;points=[];" vertex="1" connectable="0" parent="jouAs4YN88GggbfPHZCA-193">
          <mxGeometry x="0.1112" y="-1" relative="1" as="geometry">
            <mxPoint as="offset" />
          </mxGeometry>
        </mxCell>
        <mxCell id="jouAs4YN88GggbfPHZCA-196" value="Primary" style="text;html=1;strokeColor=none;fillColor=none;align=center;verticalAlign=middle;whiteSpace=wrap;rounded=0;" vertex="1" parent="1">
          <mxGeometry x="2410" y="2840" width="60" height="30" as="geometry" />
        </mxCell>
        <mxCell id="jouAs4YN88GggbfPHZCA-197" value="" style="shape=cylinder3;whiteSpace=wrap;html=1;boundedLbl=1;backgroundOutline=1;size=15;" vertex="1" parent="1">
          <mxGeometry x="2560" y="2940" width="60" height="80" as="geometry" />
        </mxCell>
        <mxCell id="jouAs4YN88GggbfPHZCA-198" value="" style="endArrow=classic;html=1;rounded=0;exitX=0.5;exitY=1;exitDx=0;exitDy=0;exitPerimeter=0;entryX=0.5;entryY=0;entryDx=0;entryDy=0;entryPerimeter=0;" edge="1" parent="1" source="jouAs4YN88GggbfPHZCA-171" target="jouAs4YN88GggbfPHZCA-197">
          <mxGeometry width="50" height="50" relative="1" as="geometry">
            <mxPoint x="2550" y="2840" as="sourcePoint" />
            <mxPoint x="2600" y="2790" as="targetPoint" />
          </mxGeometry>
        </mxCell>
        <mxCell id="jouAs4YN88GggbfPHZCA-199" value="Replica" style="text;html=1;strokeColor=none;fillColor=none;align=center;verticalAlign=middle;whiteSpace=wrap;rounded=0;" vertex="1" parent="1">
          <mxGeometry x="2560" y="3030" width="60" height="30" as="geometry" />
        </mxCell>
        <mxCell id="jouAs4YN88GggbfPHZCA-200" value="" style="endArrow=classic;startArrow=classic;html=1;rounded=0;exitX=0.965;exitY=1.125;exitDx=0;exitDy=0;exitPerimeter=0;entryX=0.145;entryY=1;entryDx=0;entryDy=-4.35;entryPerimeter=0;" edge="1" parent="1" source="jouAs4YN88GggbfPHZCA-191" target="jouAs4YN88GggbfPHZCA-171">
          <mxGeometry width="50" height="50" relative="1" as="geometry">
            <mxPoint x="2360" y="2800" as="sourcePoint" />
            <mxPoint x="2410" y="2750" as="targetPoint" />
          </mxGeometry>
        </mxCell>
        <mxCell id="jouAs4YN88GggbfPHZCA-201" value="Sync" style="edgeLabel;html=1;align=center;verticalAlign=middle;resizable=0;points=[];" vertex="1" connectable="0" parent="jouAs4YN88GggbfPHZCA-200">
          <mxGeometry x="-0.04" relative="1" as="geometry">
            <mxPoint y="1" as="offset" />
          </mxGeometry>
        </mxCell>
        <mxCell id="jouAs4YN88GggbfPHZCA-247" value="DOCKER CONTAINER" style="text;html=1;strokeColor=none;fillColor=none;align=center;verticalAlign=middle;whiteSpace=wrap;rounded=0;" vertex="1" parent="1">
          <mxGeometry x="3600" y="2230" width="170" height="30" as="geometry" />
        </mxCell>
        <mxCell id="jouAs4YN88GggbfPHZCA-248" value="" style="rounded=0;whiteSpace=wrap;html=1;" vertex="1" parent="1">
          <mxGeometry x="3130" y="2260" width="640" height="660" as="geometry" />
        </mxCell>
        <mxCell id="jouAs4YN88GggbfPHZCA-249" style="edgeStyle=orthogonalEdgeStyle;rounded=0;orthogonalLoop=1;jettySize=auto;html=1;exitX=0.5;exitY=1;exitDx=0;exitDy=0;entryX=0.5;entryY=0;entryDx=0;entryDy=0;" edge="1" parent="1" source="jouAs4YN88GggbfPHZCA-250" target="jouAs4YN88GggbfPHZCA-252">
          <mxGeometry relative="1" as="geometry" />
        </mxCell>
        <mxCell id="jouAs4YN88GggbfPHZCA-250" value="REST API" style="rounded=0;whiteSpace=wrap;html=1;" vertex="1" parent="1">
          <mxGeometry x="3390" y="2330" width="90" height="40" as="geometry" />
        </mxCell>
        <mxCell id="jouAs4YN88GggbfPHZCA-251" value="CUSTOMER SERVICE" style="text;html=1;strokeColor=none;fillColor=none;align=center;verticalAlign=middle;whiteSpace=wrap;rounded=0;" vertex="1" parent="1">
          <mxGeometry x="3365" y="2270" width="170" height="30" as="geometry" />
        </mxCell>
        <mxCell id="jouAs4YN88GggbfPHZCA-252" value="Controller" style="rounded=1;whiteSpace=wrap;html=1;" vertex="1" parent="1">
          <mxGeometry x="3375" y="2460" width="120" height="60" as="geometry" />
        </mxCell>
        <mxCell id="jouAs4YN88GggbfPHZCA-255" value="LOGIN" style="rounded=0;whiteSpace=wrap;html=1;" vertex="1" parent="1">
          <mxGeometry x="3410" y="2590" width="120" height="60" as="geometry" />
        </mxCell>
        <mxCell id="jouAs4YN88GggbfPHZCA-256" value="" style="endArrow=classic;html=1;rounded=0;exitX=0.5;exitY=1;exitDx=0;exitDy=0;entryX=0.5;entryY=0;entryDx=0;entryDy=0;" edge="1" parent="1" source="jouAs4YN88GggbfPHZCA-252" target="jouAs4YN88GggbfPHZCA-255">
          <mxGeometry width="50" height="50" relative="1" as="geometry">
            <mxPoint x="3590" y="2540" as="sourcePoint" />
            <mxPoint x="3640" y="2490" as="targetPoint" />
          </mxGeometry>
        </mxCell>
        <mxCell id="jouAs4YN88GggbfPHZCA-257" value="CRUD CUSTOMER" style="rounded=0;whiteSpace=wrap;html=1;" vertex="1" parent="1">
          <mxGeometry x="3600" y="2590" width="120" height="60" as="geometry" />
        </mxCell>
        <mxCell id="jouAs4YN88GggbfPHZCA-258" value="" style="shape=cylinder3;whiteSpace=wrap;html=1;boundedLbl=1;backgroundOutline=1;size=15;" vertex="1" parent="1">
          <mxGeometry x="3630" y="2780" width="60" height="80" as="geometry" />
        </mxCell>
        <mxCell id="jouAs4YN88GggbfPHZCA-259" value="" style="endArrow=classic;html=1;rounded=0;exitX=0.5;exitY=1;exitDx=0;exitDy=0;entryX=0.5;entryY=0;entryDx=0;entryDy=0;entryPerimeter=0;" edge="1" parent="1" source="jouAs4YN88GggbfPHZCA-257" target="jouAs4YN88GggbfPHZCA-258">
          <mxGeometry width="50" height="50" relative="1" as="geometry">
            <mxPoint x="3680" y="2760" as="sourcePoint" />
            <mxPoint x="3730" y="2710" as="targetPoint" />
          </mxGeometry>
        </mxCell>
        <mxCell id="jouAs4YN88GggbfPHZCA-260" value="If cache miss" style="edgeLabel;html=1;align=center;verticalAlign=middle;resizable=0;points=[];" vertex="1" connectable="0" parent="jouAs4YN88GggbfPHZCA-259">
          <mxGeometry x="-0.0192" y="2" relative="1" as="geometry">
            <mxPoint as="offset" />
          </mxGeometry>
        </mxCell>
        <mxCell id="jouAs4YN88GggbfPHZCA-261" value="" style="endArrow=classic;html=1;rounded=0;exitX=0.5;exitY=1;exitDx=0;exitDy=0;entryX=0.329;entryY=-0.005;entryDx=0;entryDy=0;entryPerimeter=0;" edge="1" parent="1" source="jouAs4YN88GggbfPHZCA-255" target="jouAs4YN88GggbfPHZCA-258">
          <mxGeometry width="50" height="50" relative="1" as="geometry">
            <mxPoint x="3610" y="2780" as="sourcePoint" />
            <mxPoint x="3660" y="2730" as="targetPoint" />
          </mxGeometry>
        </mxCell>
        <mxCell id="jouAs4YN88GggbfPHZCA-262" value="if cache miss" style="edgeLabel;html=1;align=center;verticalAlign=middle;resizable=0;points=[];" vertex="1" connectable="0" parent="jouAs4YN88GggbfPHZCA-261">
          <mxGeometry x="-0.0738" relative="1" as="geometry">
            <mxPoint as="offset" />
          </mxGeometry>
        </mxCell>
        <mxCell id="jouAs4YN88GggbfPHZCA-263" value="" style="endArrow=classic;html=1;rounded=0;exitX=0.5;exitY=1;exitDx=0;exitDy=0;entryX=0.5;entryY=0;entryDx=0;entryDy=0;" edge="1" parent="1" source="jouAs4YN88GggbfPHZCA-252" target="jouAs4YN88GggbfPHZCA-257">
          <mxGeometry width="50" height="50" relative="1" as="geometry">
            <mxPoint x="3580" y="2570" as="sourcePoint" />
            <mxPoint x="3630" y="2520" as="targetPoint" />
          </mxGeometry>
        </mxCell>
        <mxCell id="jouAs4YN88GggbfPHZCA-267" value="" style="image;sketch=0;aspect=fixed;html=1;points=[];align=center;fontSize=12;image=img/lib/mscae/Cache_Redis_Product.svg;" vertex="1" parent="1">
          <mxGeometry x="3445" y="2730" width="50" height="42" as="geometry" />
        </mxCell>
        <mxCell id="jouAs4YN88GggbfPHZCA-268" value="" style="endArrow=classic;html=1;rounded=0;exitX=0.5;exitY=1;exitDx=0;exitDy=0;entryX=0.49;entryY=0;entryDx=0;entryDy=0;entryPerimeter=0;" edge="1" parent="1" source="jouAs4YN88GggbfPHZCA-270" target="jouAs4YN88GggbfPHZCA-267">
          <mxGeometry width="50" height="50" relative="1" as="geometry">
            <mxPoint x="3210.42" y="2732" as="sourcePoint" />
            <mxPoint x="3240" y="2755" as="targetPoint" />
          </mxGeometry>
        </mxCell>
        <mxCell id="jouAs4YN88GggbfPHZCA-269" value="" style="endArrow=classic;html=1;rounded=0;exitX=0.5;exitY=1;exitDx=0;exitDy=0;entryX=0.49;entryY=0;entryDx=0;entryDy=0;entryPerimeter=0;" edge="1" parent="1" source="jouAs4YN88GggbfPHZCA-255" target="jouAs4YN88GggbfPHZCA-270">
          <mxGeometry width="50" height="50" relative="1" as="geometry">
            <mxPoint x="3470" y="2650" as="sourcePoint" />
            <mxPoint x="3470" y="2730" as="targetPoint" />
          </mxGeometry>
        </mxCell>
        <mxCell id="jouAs4YN88GggbfPHZCA-270" value="If cache hit" style="text;html=1;strokeColor=none;fillColor=none;align=center;verticalAlign=middle;whiteSpace=wrap;rounded=0;" vertex="1" parent="1">
          <mxGeometry x="3432.5" y="2680" width="75" height="30" as="geometry" />
        </mxCell>
        <mxCell id="jouAs4YN88GggbfPHZCA-271" value="" style="endArrow=classic;startArrow=classic;html=1;rounded=0;exitX=0;exitY=0;exitDx=0;exitDy=52.5;exitPerimeter=0;" edge="1" parent="1" source="jouAs4YN88GggbfPHZCA-258" target="jouAs4YN88GggbfPHZCA-267">
          <mxGeometry width="50" height="50" relative="1" as="geometry">
            <mxPoint x="3530" y="2840" as="sourcePoint" />
            <mxPoint x="3580" y="2790" as="targetPoint" />
          </mxGeometry>
        </mxCell>
        <mxCell id="jouAs4YN88GggbfPHZCA-272" value="Sync" style="edgeLabel;html=1;align=center;verticalAlign=middle;resizable=0;points=[];" vertex="1" connectable="0" parent="jouAs4YN88GggbfPHZCA-271">
          <mxGeometry x="0.135" relative="1" as="geometry">
            <mxPoint as="offset" />
          </mxGeometry>
        </mxCell>
        <mxCell id="jouAs4YN88GggbfPHZCA-273" value="" style="image;sketch=0;aspect=fixed;html=1;points=[];align=center;fontSize=12;image=img/lib/mscae/Cache_Redis_Product.svg;" vertex="1" parent="1">
          <mxGeometry x="3810" y="2748" width="50" height="42" as="geometry" />
        </mxCell>
        <mxCell id="jouAs4YN88GggbfPHZCA-274" value="" style="endArrow=classic;html=1;rounded=0;exitX=0.5;exitY=1;exitDx=0;exitDy=0;entryX=0.065;entryY=-0.042;entryDx=0;entryDy=0;entryPerimeter=0;" edge="1" parent="1" source="jouAs4YN88GggbfPHZCA-257" target="jouAs4YN88GggbfPHZCA-273">
          <mxGeometry width="50" height="50" relative="1" as="geometry">
            <mxPoint x="3740" y="2700" as="sourcePoint" />
            <mxPoint x="3790" y="2650" as="targetPoint" />
          </mxGeometry>
        </mxCell>
        <mxCell id="jouAs4YN88GggbfPHZCA-275" value="If ache hit" style="edgeLabel;html=1;align=center;verticalAlign=middle;resizable=0;points=[];" vertex="1" connectable="0" parent="jouAs4YN88GggbfPHZCA-274">
          <mxGeometry x="0.1332" y="-2" relative="1" as="geometry">
            <mxPoint as="offset" />
          </mxGeometry>
        </mxCell>
        <mxCell id="jouAs4YN88GggbfPHZCA-276" value="" style="endArrow=classic;startArrow=classic;html=1;rounded=0;exitX=1;exitY=0.5;exitDx=0;exitDy=0;exitPerimeter=0;entryX=-0.035;entryY=0.673;entryDx=0;entryDy=0;entryPerimeter=0;" edge="1" parent="1" source="jouAs4YN88GggbfPHZCA-258" target="jouAs4YN88GggbfPHZCA-273">
          <mxGeometry width="50" height="50" relative="1" as="geometry">
            <mxPoint x="3720" y="2850" as="sourcePoint" />
            <mxPoint x="3770" y="2800" as="targetPoint" />
          </mxGeometry>
        </mxCell>
        <mxCell id="jouAs4YN88GggbfPHZCA-277" value="Sync" style="edgeLabel;html=1;align=center;verticalAlign=middle;resizable=0;points=[];" vertex="1" connectable="0" parent="jouAs4YN88GggbfPHZCA-276">
          <mxGeometry x="-0.0467" y="2" relative="1" as="geometry">
            <mxPoint as="offset" />
          </mxGeometry>
        </mxCell>
        <mxCell id="jouAs4YN88GggbfPHZCA-278" value="" style="shape=cylinder3;whiteSpace=wrap;html=1;boundedLbl=1;backgroundOutline=1;size=15;" vertex="1" parent="1">
          <mxGeometry x="3580" y="2950" width="60" height="80" as="geometry" />
        </mxCell>
        <mxCell id="jouAs4YN88GggbfPHZCA-279" value="" style="endArrow=classic;html=1;rounded=0;entryX=0.5;entryY=0;entryDx=0;entryDy=0;entryPerimeter=0;exitX=0.5;exitY=1;exitDx=0;exitDy=0;exitPerimeter=0;" edge="1" parent="1" source="jouAs4YN88GggbfPHZCA-258" target="jouAs4YN88GggbfPHZCA-278">
          <mxGeometry width="50" height="50" relative="1" as="geometry">
            <mxPoint x="3710" y="2920" as="sourcePoint" />
            <mxPoint x="3760" y="2870" as="targetPoint" />
          </mxGeometry>
        </mxCell>
        <mxCell id="jouAs4YN88GggbfPHZCA-280" value="Replicate" style="edgeLabel;html=1;align=center;verticalAlign=middle;resizable=0;points=[];" vertex="1" connectable="0" parent="jouAs4YN88GggbfPHZCA-279">
          <mxGeometry x="-0.1061" y="2" relative="1" as="geometry">
            <mxPoint as="offset" />
          </mxGeometry>
        </mxCell>
        <mxCell id="jouAs4YN88GggbfPHZCA-281" value="Primary" style="text;html=1;strokeColor=none;fillColor=none;align=center;verticalAlign=middle;whiteSpace=wrap;rounded=0;" vertex="1" parent="1">
          <mxGeometry x="3630" y="2860" width="60" height="30" as="geometry" />
        </mxCell>
        <mxCell id="jouAs4YN88GggbfPHZCA-282" value="Replica" style="text;html=1;strokeColor=none;fillColor=none;align=center;verticalAlign=middle;whiteSpace=wrap;rounded=0;" vertex="1" parent="1">
          <mxGeometry x="3580" y="3050" width="60" height="30" as="geometry" />
        </mxCell>
        <mxCell id="jouAs4YN88GggbfPHZCA-292" value="" style="endArrow=none;dashed=1;html=1;rounded=0;entryX=0.5;entryY=1;entryDx=0;entryDy=0;exitX=0.5;exitY=0;exitDx=0;exitDy=0;" edge="1" parent="1" source="jouAs4YN88GggbfPHZCA-248" target="eeQnbSwuubueaIoQva4B-47">
          <mxGeometry width="50" height="50" relative="1" as="geometry">
            <mxPoint x="2240" y="1920" as="sourcePoint" />
            <mxPoint x="2290" y="1870" as="targetPoint" />
          </mxGeometry>
        </mxCell>
        <mxCell id="jouAs4YN88GggbfPHZCA-293" value="" style="endArrow=classic;html=1;rounded=0;exitX=1;exitY=0.5;exitDx=0;exitDy=0;entryX=0;entryY=0.5;entryDx=0;entryDy=0;" edge="1" parent="1" source="jouAs4YN88GggbfPHZCA-10" target="jouAs4YN88GggbfPHZCA-139">
          <mxGeometry width="50" height="50" relative="1" as="geometry">
            <mxPoint x="1390" y="2580" as="sourcePoint" />
            <mxPoint x="1440" y="2530" as="targetPoint" />
            <Array as="points">
              <mxPoint x="1410" y="2580" />
              <mxPoint x="1410" y="3240" />
              <mxPoint x="2230" y="3230" />
              <mxPoint x="2230" y="2340" />
            </Array>
          </mxGeometry>
        </mxCell>
        <mxCell id="jouAs4YN88GggbfPHZCA-294" value="Request for Lenders" style="edgeLabel;html=1;align=center;verticalAlign=middle;resizable=0;points=[];" vertex="1" connectable="0" parent="jouAs4YN88GggbfPHZCA-293">
          <mxGeometry x="-0.9717" y="-1" relative="1" as="geometry">
            <mxPoint x="16" y="19" as="offset" />
          </mxGeometry>
        </mxCell>
        <mxCell id="jouAs4YN88GggbfPHZCA-295" value="VIEW DEBT" style="rounded=0;whiteSpace=wrap;html=1;" vertex="1" parent="1">
          <mxGeometry x="1530" y="2568" width="120" height="60" as="geometry" />
        </mxCell>
        <mxCell id="jouAs4YN88GggbfPHZCA-296" value="" style="endArrow=classic;html=1;rounded=0;exitX=0;exitY=0.75;exitDx=0;exitDy=0;" edge="1" parent="1" source="jouAs4YN88GggbfPHZCA-112" target="jouAs4YN88GggbfPHZCA-295">
          <mxGeometry width="50" height="50" relative="1" as="geometry">
            <mxPoint x="1600" y="2500" as="sourcePoint" />
            <mxPoint x="1650" y="2450" as="targetPoint" />
          </mxGeometry>
        </mxCell>
        <mxCell id="jouAs4YN88GggbfPHZCA-297" value="" style="endArrow=classic;html=1;rounded=0;exitX=0.5;exitY=1;exitDx=0;exitDy=0;entryX=0.145;entryY=0;entryDx=0;entryDy=4.35;entryPerimeter=0;" edge="1" parent="1" source="jouAs4YN88GggbfPHZCA-122" target="jouAs4YN88GggbfPHZCA-117">
          <mxGeometry width="50" height="50" relative="1" as="geometry">
            <mxPoint x="1570" y="2730" as="sourcePoint" />
            <mxPoint x="1620" y="2680" as="targetPoint" />
          </mxGeometry>
        </mxCell>
        <mxCell id="jouAs4YN88GggbfPHZCA-298" value="" style="endArrow=classic;html=1;rounded=0;exitX=0.5;exitY=1;exitDx=0;exitDy=0;entryX=0.145;entryY=0;entryDx=0;entryDy=4.35;entryPerimeter=0;" edge="1" parent="1" source="jouAs4YN88GggbfPHZCA-295" target="jouAs4YN88GggbfPHZCA-122">
          <mxGeometry width="50" height="50" relative="1" as="geometry">
            <mxPoint x="1590" y="2628" as="sourcePoint" />
            <mxPoint x="1677" y="2744" as="targetPoint" />
          </mxGeometry>
        </mxCell>
        <mxCell id="jouAs4YN88GggbfPHZCA-122" value="If cache miss" style="text;html=1;strokeColor=none;fillColor=none;align=center;verticalAlign=middle;whiteSpace=wrap;rounded=0;" vertex="1" parent="1">
          <mxGeometry x="1625" y="2700" width="50" height="30" as="geometry" />
        </mxCell>
        <mxCell id="jouAs4YN88GggbfPHZCA-299" value="" style="endArrow=classic;html=1;rounded=0;exitX=1;exitY=0;exitDx=0;exitDy=0;entryX=0;entryY=0.75;entryDx=0;entryDy=0;" edge="1" parent="1" source="jouAs4YN88GggbfPHZCA-10" target="jouAs4YN88GggbfPHZCA-250">
          <mxGeometry width="50" height="50" relative="1" as="geometry">
            <mxPoint x="1430" y="2550" as="sourcePoint" />
            <mxPoint x="3250" y="3400" as="targetPoint" />
            <Array as="points">
              <mxPoint x="1480" y="2550" />
              <mxPoint x="1480" y="3430" />
              <mxPoint x="3050" y="3450" />
              <mxPoint x="3050" y="2360" />
            </Array>
          </mxGeometry>
        </mxCell>
        <mxCell id="jouAs4YN88GggbfPHZCA-300" value="&amp;nbsp;" style="edgeLabel;html=1;align=center;verticalAlign=middle;resizable=0;points=[];" vertex="1" connectable="0" parent="jouAs4YN88GggbfPHZCA-299">
          <mxGeometry x="-0.9707" y="1" relative="1" as="geometry">
            <mxPoint as="offset" />
          </mxGeometry>
        </mxCell>
        <mxCell id="jouAs4YN88GggbfPHZCA-301" value="Request for Customer Info" style="edgeLabel;html=1;align=center;verticalAlign=middle;resizable=0;points=[];" vertex="1" connectable="0" parent="jouAs4YN88GggbfPHZCA-299">
          <mxGeometry x="-0.9649" y="-5" relative="1" as="geometry">
            <mxPoint x="24" y="-5" as="offset" />
          </mxGeometry>
        </mxCell>
        <mxCell id="jouAs4YN88GggbfPHZCA-302" value="CRUD LOAN PACKAGE" style="rounded=0;whiteSpace=wrap;html=1;" vertex="1" parent="1">
          <mxGeometry x="850" y="2550" width="120" height="60" as="geometry" />
        </mxCell>
        <mxCell id="jouAs4YN88GggbfPHZCA-303" value="" style="endArrow=classic;html=1;rounded=0;exitX=0.5;exitY=1;exitDx=0;exitDy=0;entryX=0.5;entryY=0;entryDx=0;entryDy=0;" edge="1" parent="1" source="jouAs4YN88GggbfPHZCA-6" target="jouAs4YN88GggbfPHZCA-302">
          <mxGeometry width="50" height="50" relative="1" as="geometry">
            <mxPoint x="980" y="2650" as="sourcePoint" />
            <mxPoint x="1030" y="2600" as="targetPoint" />
          </mxGeometry>
        </mxCell>
        <mxCell id="jouAs4YN88GggbfPHZCA-304" value="" style="shape=cylinder3;whiteSpace=wrap;html=1;boundedLbl=1;backgroundOutline=1;size=15;" vertex="1" parent="1">
          <mxGeometry x="835" y="2729" width="60" height="80" as="geometry" />
        </mxCell>
        <mxCell id="jouAs4YN88GggbfPHZCA-305" value="" style="image;sketch=0;aspect=fixed;html=1;points=[];align=center;fontSize=12;image=img/lib/mscae/Cache_Redis_Product.svg;" vertex="1" parent="1">
          <mxGeometry x="955" y="2682" width="50" height="42" as="geometry" />
        </mxCell>
        <mxCell id="jouAs4YN88GggbfPHZCA-306" value="" style="endArrow=classic;html=1;rounded=0;exitX=0.5;exitY=1;exitDx=0;exitDy=0;entryX=0.442;entryY=-0.069;entryDx=0;entryDy=0;entryPerimeter=0;" edge="1" parent="1" source="jouAs4YN88GggbfPHZCA-302" target="jouAs4YN88GggbfPHZCA-305">
          <mxGeometry width="50" height="50" relative="1" as="geometry">
            <mxPoint x="900" y="2680" as="sourcePoint" />
            <mxPoint x="950" y="2630" as="targetPoint" />
          </mxGeometry>
        </mxCell>
        <mxCell id="jouAs4YN88GggbfPHZCA-307" value="if cache hit" style="edgeLabel;html=1;align=center;verticalAlign=middle;resizable=0;points=[];" vertex="1" connectable="0" parent="jouAs4YN88GggbfPHZCA-306">
          <mxGeometry x="0.119" relative="1" as="geometry">
            <mxPoint as="offset" />
          </mxGeometry>
        </mxCell>
        <mxCell id="jouAs4YN88GggbfPHZCA-308" value="" style="endArrow=classic;html=1;rounded=0;entryX=0.5;entryY=0;entryDx=0;entryDy=0;entryPerimeter=0;exitX=0.559;exitY=1.029;exitDx=0;exitDy=0;exitPerimeter=0;" edge="1" parent="1" source="jouAs4YN88GggbfPHZCA-302" target="jouAs4YN88GggbfPHZCA-304">
          <mxGeometry width="50" height="50" relative="1" as="geometry">
            <mxPoint x="850" y="2690" as="sourcePoint" />
            <mxPoint x="900" y="2640" as="targetPoint" />
          </mxGeometry>
        </mxCell>
        <mxCell id="jouAs4YN88GggbfPHZCA-309" value="If cache miss" style="edgeLabel;html=1;align=center;verticalAlign=middle;resizable=0;points=[];" vertex="1" connectable="0" parent="jouAs4YN88GggbfPHZCA-308">
          <mxGeometry x="0.196" y="-2" relative="1" as="geometry">
            <mxPoint as="offset" />
          </mxGeometry>
        </mxCell>
        <mxCell id="jouAs4YN88GggbfPHZCA-310" value="" style="endArrow=classic;startArrow=classic;html=1;rounded=0;exitX=1;exitY=0;exitDx=0;exitDy=52.5;exitPerimeter=0;" edge="1" parent="1" source="jouAs4YN88GggbfPHZCA-304" target="jouAs4YN88GggbfPHZCA-305">
          <mxGeometry width="50" height="50" relative="1" as="geometry">
            <mxPoint x="950" y="2790" as="sourcePoint" />
            <mxPoint x="1000" y="2740" as="targetPoint" />
          </mxGeometry>
        </mxCell>
        <mxCell id="jouAs4YN88GggbfPHZCA-311" value="Sync" style="edgeLabel;html=1;align=center;verticalAlign=middle;resizable=0;points=[];" vertex="1" connectable="0" parent="jouAs4YN88GggbfPHZCA-310">
          <mxGeometry x="0.0422" relative="1" as="geometry">
            <mxPoint as="offset" />
          </mxGeometry>
        </mxCell>
        <mxCell id="jouAs4YN88GggbfPHZCA-316" value="" style="endArrow=classic;html=1;rounded=0;exitX=0.75;exitY=0;exitDx=0;exitDy=0;" edge="1" parent="1" source="jouAs4YN88GggbfPHZCA-10" target="jouAs4YN88GggbfPHZCA-302">
          <mxGeometry width="50" height="50" relative="1" as="geometry">
            <mxPoint x="1300" y="2490" as="sourcePoint" />
            <mxPoint x="1350" y="2440" as="targetPoint" />
            <Array as="points">
              <mxPoint x="1295" y="2370" />
              <mxPoint x="910" y="2370" />
            </Array>
          </mxGeometry>
        </mxCell>
        <mxCell id="jouAs4YN88GggbfPHZCA-317" value="Request Loan Package Data" style="edgeLabel;html=1;align=center;verticalAlign=middle;resizable=0;points=[];" vertex="1" connectable="0" parent="jouAs4YN88GggbfPHZCA-316">
          <mxGeometry x="-0.7249" y="-1" relative="1" as="geometry">
            <mxPoint as="offset" />
          </mxGeometry>
        </mxCell>
        <mxCell id="jouAs4YN88GggbfPHZCA-318" value="EMPLOYEE SERVICE" style="rounded=0;whiteSpace=wrap;html=1;" vertex="1" parent="1">
          <mxGeometry x="1878.42" y="1860" width="161.58" height="60" as="geometry" />
        </mxCell>
        <mxCell id="jouAs4YN88GggbfPHZCA-319" value="" style="endArrow=classic;html=1;rounded=0;exitX=0.5;exitY=1;exitDx=0;exitDy=0;entryX=0.5;entryY=0;entryDx=0;entryDy=0;" edge="1" parent="1" source="eeQnbSwuubueaIoQva4B-35" target="jouAs4YN88GggbfPHZCA-318">
          <mxGeometry width="50" height="50" relative="1" as="geometry">
            <mxPoint x="1670" y="1700" as="sourcePoint" />
            <mxPoint x="1720" y="1650" as="targetPoint" />
          </mxGeometry>
        </mxCell>
        <mxCell id="jouAs4YN88GggbfPHZCA-320" value="DOCKER CONTAINER" style="text;html=1;strokeColor=none;fillColor=none;align=center;verticalAlign=middle;whiteSpace=wrap;rounded=0;" vertex="1" parent="1">
          <mxGeometry x="4480" y="2230" width="170" height="30" as="geometry" />
        </mxCell>
        <mxCell id="jouAs4YN88GggbfPHZCA-321" value="" style="rounded=0;whiteSpace=wrap;html=1;" vertex="1" parent="1">
          <mxGeometry x="4010" y="2260" width="640" height="660" as="geometry" />
        </mxCell>
        <mxCell id="jouAs4YN88GggbfPHZCA-322" style="edgeStyle=orthogonalEdgeStyle;rounded=0;orthogonalLoop=1;jettySize=auto;html=1;exitX=0.5;exitY=1;exitDx=0;exitDy=0;entryX=0.5;entryY=0;entryDx=0;entryDy=0;" edge="1" parent="1" source="jouAs4YN88GggbfPHZCA-323" target="jouAs4YN88GggbfPHZCA-325">
          <mxGeometry relative="1" as="geometry" />
        </mxCell>
        <mxCell id="jouAs4YN88GggbfPHZCA-323" value="REST API" style="rounded=0;whiteSpace=wrap;html=1;" vertex="1" parent="1">
          <mxGeometry x="4270" y="2330" width="90" height="40" as="geometry" />
        </mxCell>
        <mxCell id="jouAs4YN88GggbfPHZCA-324" value="EMPLOYEE SERVICE" style="text;html=1;strokeColor=none;fillColor=none;align=center;verticalAlign=middle;whiteSpace=wrap;rounded=0;" vertex="1" parent="1">
          <mxGeometry x="4245" y="2270" width="170" height="30" as="geometry" />
        </mxCell>
        <mxCell id="jouAs4YN88GggbfPHZCA-325" value="Controller" style="rounded=1;whiteSpace=wrap;html=1;" vertex="1" parent="1">
          <mxGeometry x="4255" y="2460" width="120" height="60" as="geometry" />
        </mxCell>
        <mxCell id="jouAs4YN88GggbfPHZCA-326" value="LOGIN" style="rounded=0;whiteSpace=wrap;html=1;" vertex="1" parent="1">
          <mxGeometry x="4290" y="2590" width="120" height="60" as="geometry" />
        </mxCell>
        <mxCell id="jouAs4YN88GggbfPHZCA-327" value="" style="endArrow=classic;html=1;rounded=0;exitX=0.5;exitY=1;exitDx=0;exitDy=0;entryX=0.5;entryY=0;entryDx=0;entryDy=0;" edge="1" parent="1" source="jouAs4YN88GggbfPHZCA-325" target="jouAs4YN88GggbfPHZCA-326">
          <mxGeometry width="50" height="50" relative="1" as="geometry">
            <mxPoint x="4470" y="2540" as="sourcePoint" />
            <mxPoint x="4520" y="2490" as="targetPoint" />
          </mxGeometry>
        </mxCell>
        <mxCell id="jouAs4YN88GggbfPHZCA-328" value="CRUD EMPLOYEE" style="rounded=0;whiteSpace=wrap;html=1;" vertex="1" parent="1">
          <mxGeometry x="4480" y="2590" width="120" height="60" as="geometry" />
        </mxCell>
        <mxCell id="jouAs4YN88GggbfPHZCA-329" value="" style="shape=cylinder3;whiteSpace=wrap;html=1;boundedLbl=1;backgroundOutline=1;size=15;" vertex="1" parent="1">
          <mxGeometry x="4510" y="2780" width="60" height="80" as="geometry" />
        </mxCell>
        <mxCell id="jouAs4YN88GggbfPHZCA-330" value="" style="endArrow=classic;html=1;rounded=0;exitX=0.5;exitY=1;exitDx=0;exitDy=0;entryX=0.5;entryY=0;entryDx=0;entryDy=0;entryPerimeter=0;" edge="1" parent="1" source="jouAs4YN88GggbfPHZCA-328" target="jouAs4YN88GggbfPHZCA-329">
          <mxGeometry width="50" height="50" relative="1" as="geometry">
            <mxPoint x="4560" y="2760" as="sourcePoint" />
            <mxPoint x="4610" y="2710" as="targetPoint" />
          </mxGeometry>
        </mxCell>
        <mxCell id="jouAs4YN88GggbfPHZCA-331" value="If cache miss" style="edgeLabel;html=1;align=center;verticalAlign=middle;resizable=0;points=[];" vertex="1" connectable="0" parent="jouAs4YN88GggbfPHZCA-330">
          <mxGeometry x="-0.0192" y="2" relative="1" as="geometry">
            <mxPoint as="offset" />
          </mxGeometry>
        </mxCell>
        <mxCell id="jouAs4YN88GggbfPHZCA-332" value="" style="endArrow=classic;html=1;rounded=0;exitX=0.5;exitY=1;exitDx=0;exitDy=0;entryX=0.329;entryY=-0.005;entryDx=0;entryDy=0;entryPerimeter=0;" edge="1" parent="1" source="jouAs4YN88GggbfPHZCA-326" target="jouAs4YN88GggbfPHZCA-329">
          <mxGeometry width="50" height="50" relative="1" as="geometry">
            <mxPoint x="4490" y="2780" as="sourcePoint" />
            <mxPoint x="4540" y="2730" as="targetPoint" />
          </mxGeometry>
        </mxCell>
        <mxCell id="jouAs4YN88GggbfPHZCA-333" value="if cache miss" style="edgeLabel;html=1;align=center;verticalAlign=middle;resizable=0;points=[];" vertex="1" connectable="0" parent="jouAs4YN88GggbfPHZCA-332">
          <mxGeometry x="-0.0738" relative="1" as="geometry">
            <mxPoint as="offset" />
          </mxGeometry>
        </mxCell>
        <mxCell id="jouAs4YN88GggbfPHZCA-334" value="" style="endArrow=classic;html=1;rounded=0;exitX=0.5;exitY=1;exitDx=0;exitDy=0;entryX=0.5;entryY=0;entryDx=0;entryDy=0;" edge="1" parent="1" source="jouAs4YN88GggbfPHZCA-325" target="jouAs4YN88GggbfPHZCA-328">
          <mxGeometry width="50" height="50" relative="1" as="geometry">
            <mxPoint x="4460" y="2570" as="sourcePoint" />
            <mxPoint x="4510" y="2520" as="targetPoint" />
          </mxGeometry>
        </mxCell>
        <mxCell id="jouAs4YN88GggbfPHZCA-335" value="" style="image;sketch=0;aspect=fixed;html=1;points=[];align=center;fontSize=12;image=img/lib/mscae/Cache_Redis_Product.svg;" vertex="1" parent="1">
          <mxGeometry x="4325" y="2730" width="50" height="42" as="geometry" />
        </mxCell>
        <mxCell id="jouAs4YN88GggbfPHZCA-336" value="" style="endArrow=classic;html=1;rounded=0;exitX=0.5;exitY=1;exitDx=0;exitDy=0;entryX=0.49;entryY=0;entryDx=0;entryDy=0;entryPerimeter=0;" edge="1" parent="1" source="jouAs4YN88GggbfPHZCA-338" target="jouAs4YN88GggbfPHZCA-335">
          <mxGeometry width="50" height="50" relative="1" as="geometry">
            <mxPoint x="4090.42" y="2732" as="sourcePoint" />
            <mxPoint x="4120" y="2755" as="targetPoint" />
          </mxGeometry>
        </mxCell>
        <mxCell id="jouAs4YN88GggbfPHZCA-337" value="" style="endArrow=classic;html=1;rounded=0;exitX=0.5;exitY=1;exitDx=0;exitDy=0;entryX=0.49;entryY=0;entryDx=0;entryDy=0;entryPerimeter=0;" edge="1" parent="1" source="jouAs4YN88GggbfPHZCA-326" target="jouAs4YN88GggbfPHZCA-338">
          <mxGeometry width="50" height="50" relative="1" as="geometry">
            <mxPoint x="4350" y="2650" as="sourcePoint" />
            <mxPoint x="4350" y="2730" as="targetPoint" />
          </mxGeometry>
        </mxCell>
        <mxCell id="jouAs4YN88GggbfPHZCA-338" value="If cache hit" style="text;html=1;strokeColor=none;fillColor=none;align=center;verticalAlign=middle;whiteSpace=wrap;rounded=0;" vertex="1" parent="1">
          <mxGeometry x="4312.5" y="2680" width="75" height="30" as="geometry" />
        </mxCell>
        <mxCell id="jouAs4YN88GggbfPHZCA-339" value="" style="endArrow=classic;startArrow=classic;html=1;rounded=0;exitX=0;exitY=0;exitDx=0;exitDy=52.5;exitPerimeter=0;" edge="1" parent="1" source="jouAs4YN88GggbfPHZCA-329" target="jouAs4YN88GggbfPHZCA-335">
          <mxGeometry width="50" height="50" relative="1" as="geometry">
            <mxPoint x="4410" y="2840" as="sourcePoint" />
            <mxPoint x="4460" y="2790" as="targetPoint" />
          </mxGeometry>
        </mxCell>
        <mxCell id="jouAs4YN88GggbfPHZCA-340" value="Sync" style="edgeLabel;html=1;align=center;verticalAlign=middle;resizable=0;points=[];" vertex="1" connectable="0" parent="jouAs4YN88GggbfPHZCA-339">
          <mxGeometry x="0.135" relative="1" as="geometry">
            <mxPoint as="offset" />
          </mxGeometry>
        </mxCell>
        <mxCell id="jouAs4YN88GggbfPHZCA-341" value="" style="image;sketch=0;aspect=fixed;html=1;points=[];align=center;fontSize=12;image=img/lib/mscae/Cache_Redis_Product.svg;" vertex="1" parent="1">
          <mxGeometry x="4690" y="2748" width="50" height="42" as="geometry" />
        </mxCell>
        <mxCell id="jouAs4YN88GggbfPHZCA-342" value="" style="endArrow=classic;html=1;rounded=0;exitX=0.5;exitY=1;exitDx=0;exitDy=0;entryX=0.065;entryY=-0.042;entryDx=0;entryDy=0;entryPerimeter=0;" edge="1" parent="1" source="jouAs4YN88GggbfPHZCA-328" target="jouAs4YN88GggbfPHZCA-341">
          <mxGeometry width="50" height="50" relative="1" as="geometry">
            <mxPoint x="4620" y="2700" as="sourcePoint" />
            <mxPoint x="4670" y="2650" as="targetPoint" />
          </mxGeometry>
        </mxCell>
        <mxCell id="jouAs4YN88GggbfPHZCA-343" value="If ache hit" style="edgeLabel;html=1;align=center;verticalAlign=middle;resizable=0;points=[];" vertex="1" connectable="0" parent="jouAs4YN88GggbfPHZCA-342">
          <mxGeometry x="0.1332" y="-2" relative="1" as="geometry">
            <mxPoint as="offset" />
          </mxGeometry>
        </mxCell>
        <mxCell id="jouAs4YN88GggbfPHZCA-344" value="" style="endArrow=classic;startArrow=classic;html=1;rounded=0;exitX=1;exitY=0.5;exitDx=0;exitDy=0;exitPerimeter=0;entryX=-0.035;entryY=0.673;entryDx=0;entryDy=0;entryPerimeter=0;" edge="1" parent="1" source="jouAs4YN88GggbfPHZCA-329" target="jouAs4YN88GggbfPHZCA-341">
          <mxGeometry width="50" height="50" relative="1" as="geometry">
            <mxPoint x="4600" y="2850" as="sourcePoint" />
            <mxPoint x="4650" y="2800" as="targetPoint" />
          </mxGeometry>
        </mxCell>
        <mxCell id="jouAs4YN88GggbfPHZCA-345" value="Sync" style="edgeLabel;html=1;align=center;verticalAlign=middle;resizable=0;points=[];" vertex="1" connectable="0" parent="jouAs4YN88GggbfPHZCA-344">
          <mxGeometry x="-0.0467" y="2" relative="1" as="geometry">
            <mxPoint as="offset" />
          </mxGeometry>
        </mxCell>
        <mxCell id="jouAs4YN88GggbfPHZCA-346" value="" style="shape=cylinder3;whiteSpace=wrap;html=1;boundedLbl=1;backgroundOutline=1;size=15;" vertex="1" parent="1">
          <mxGeometry x="4460" y="2950" width="60" height="80" as="geometry" />
        </mxCell>
        <mxCell id="jouAs4YN88GggbfPHZCA-347" value="" style="endArrow=classic;html=1;rounded=0;entryX=0.5;entryY=0;entryDx=0;entryDy=0;entryPerimeter=0;exitX=0.5;exitY=1;exitDx=0;exitDy=0;exitPerimeter=0;" edge="1" parent="1" source="jouAs4YN88GggbfPHZCA-329" target="jouAs4YN88GggbfPHZCA-346">
          <mxGeometry width="50" height="50" relative="1" as="geometry">
            <mxPoint x="4590" y="2920" as="sourcePoint" />
            <mxPoint x="4640" y="2870" as="targetPoint" />
          </mxGeometry>
        </mxCell>
        <mxCell id="jouAs4YN88GggbfPHZCA-348" value="Replicate" style="edgeLabel;html=1;align=center;verticalAlign=middle;resizable=0;points=[];" vertex="1" connectable="0" parent="jouAs4YN88GggbfPHZCA-347">
          <mxGeometry x="-0.1061" y="2" relative="1" as="geometry">
            <mxPoint as="offset" />
          </mxGeometry>
        </mxCell>
        <mxCell id="jouAs4YN88GggbfPHZCA-349" value="Primary" style="text;html=1;strokeColor=none;fillColor=none;align=center;verticalAlign=middle;whiteSpace=wrap;rounded=0;" vertex="1" parent="1">
          <mxGeometry x="4510" y="2860" width="60" height="30" as="geometry" />
        </mxCell>
        <mxCell id="jouAs4YN88GggbfPHZCA-350" value="Replica" style="text;html=1;strokeColor=none;fillColor=none;align=center;verticalAlign=middle;whiteSpace=wrap;rounded=0;" vertex="1" parent="1">
          <mxGeometry x="4460" y="3050" width="60" height="30" as="geometry" />
        </mxCell>
        <mxCell id="jouAs4YN88GggbfPHZCA-352" value="" style="endArrow=none;dashed=1;html=1;rounded=0;exitX=1;exitY=1;exitDx=0;exitDy=0;entryX=0.5;entryY=0;entryDx=0;entryDy=0;" edge="1" parent="1" source="jouAs4YN88GggbfPHZCA-318" target="jouAs4YN88GggbfPHZCA-321">
          <mxGeometry width="50" height="50" relative="1" as="geometry">
            <mxPoint x="2710" y="1950" as="sourcePoint" />
            <mxPoint x="2760" y="1900" as="targetPoint" />
          </mxGeometry>
        </mxCell>
        <mxCell id="jouAs4YN88GggbfPHZCA-421" style="edgeStyle=orthogonalEdgeStyle;rounded=0;orthogonalLoop=1;jettySize=auto;html=1;exitX=0;exitY=0.25;exitDx=0;exitDy=0;entryX=0.5;entryY=0;entryDx=0;entryDy=0;" edge="1" parent="1" source="jouAs4YN88GggbfPHZCA-353" target="jouAs4YN88GggbfPHZCA-355">
          <mxGeometry relative="1" as="geometry">
            <Array as="points">
              <mxPoint x="-40" y="1880" />
              <mxPoint x="-40" y="3150" />
              <mxPoint x="-410" y="3150" />
            </Array>
          </mxGeometry>
        </mxCell>
        <mxCell id="jouAs4YN88GggbfPHZCA-353" value="MEDIA UPLOAD SERVICE" style="rounded=0;whiteSpace=wrap;html=1;" vertex="1" parent="1">
          <mxGeometry x="430" y="1865" width="120" height="60" as="geometry" />
        </mxCell>
        <mxCell id="jouAs4YN88GggbfPHZCA-354" value="DOCKER CONTAINER" style="text;html=1;strokeColor=none;fillColor=none;align=center;verticalAlign=middle;whiteSpace=wrap;rounded=0;" vertex="1" parent="1">
          <mxGeometry x="-260" y="3250" width="170" height="30" as="geometry" />
        </mxCell>
        <mxCell id="jouAs4YN88GggbfPHZCA-355" value="" style="rounded=0;whiteSpace=wrap;html=1;" vertex="1" parent="1">
          <mxGeometry x="-730" y="3280" width="640" height="660" as="geometry" />
        </mxCell>
        <mxCell id="jouAs4YN88GggbfPHZCA-356" style="edgeStyle=orthogonalEdgeStyle;rounded=0;orthogonalLoop=1;jettySize=auto;html=1;exitX=0.5;exitY=1;exitDx=0;exitDy=0;entryX=0.5;entryY=0;entryDx=0;entryDy=0;" edge="1" parent="1" source="jouAs4YN88GggbfPHZCA-357" target="jouAs4YN88GggbfPHZCA-359">
          <mxGeometry relative="1" as="geometry" />
        </mxCell>
        <mxCell id="jouAs4YN88GggbfPHZCA-357" value="REST API" style="rounded=0;whiteSpace=wrap;html=1;" vertex="1" parent="1">
          <mxGeometry x="-470" y="3350" width="90" height="40" as="geometry" />
        </mxCell>
        <mxCell id="jouAs4YN88GggbfPHZCA-358" value="MEDIA UPLOAD SERVICE" style="text;html=1;strokeColor=none;fillColor=none;align=center;verticalAlign=middle;whiteSpace=wrap;rounded=0;" vertex="1" parent="1">
          <mxGeometry x="-495" y="3290" width="170" height="30" as="geometry" />
        </mxCell>
        <mxCell id="jouAs4YN88GggbfPHZCA-359" value="Controller" style="rounded=1;whiteSpace=wrap;html=1;" vertex="1" parent="1">
          <mxGeometry x="-485" y="3480" width="120" height="60" as="geometry" />
        </mxCell>
        <mxCell id="jouAs4YN88GggbfPHZCA-360" value="UPLOAD MEDIA" style="rounded=0;whiteSpace=wrap;html=1;" vertex="1" parent="1">
          <mxGeometry x="-615" y="3610" width="120" height="60" as="geometry" />
        </mxCell>
        <mxCell id="jouAs4YN88GggbfPHZCA-361" value="" style="endArrow=classic;html=1;rounded=0;exitX=0.5;exitY=1;exitDx=0;exitDy=0;entryX=0.5;entryY=0;entryDx=0;entryDy=0;" edge="1" parent="1" source="jouAs4YN88GggbfPHZCA-359" target="jouAs4YN88GggbfPHZCA-360">
          <mxGeometry width="50" height="50" relative="1" as="geometry">
            <mxPoint x="-270" y="3560" as="sourcePoint" />
            <mxPoint x="-220" y="3510" as="targetPoint" />
          </mxGeometry>
        </mxCell>
        <mxCell id="jouAs4YN88GggbfPHZCA-362" value="VIEW/DELETE" style="rounded=0;whiteSpace=wrap;html=1;" vertex="1" parent="1">
          <mxGeometry x="-340" y="3610" width="120" height="60" as="geometry" />
        </mxCell>
        <mxCell id="jouAs4YN88GggbfPHZCA-368" value="" style="endArrow=classic;html=1;rounded=0;exitX=0.5;exitY=1;exitDx=0;exitDy=0;entryX=0.5;entryY=0;entryDx=0;entryDy=0;" edge="1" parent="1" source="jouAs4YN88GggbfPHZCA-359" target="jouAs4YN88GggbfPHZCA-362">
          <mxGeometry width="50" height="50" relative="1" as="geometry">
            <mxPoint x="-280" y="3590" as="sourcePoint" />
            <mxPoint x="-230" y="3540" as="targetPoint" />
          </mxGeometry>
        </mxCell>
        <mxCell id="jouAs4YN88GggbfPHZCA-373" value="" style="endArrow=classic;startArrow=classic;html=1;rounded=0;exitX=0;exitY=0;exitDx=0;exitDy=52.5;exitPerimeter=0;" edge="1" parent="1" source="jouAs4YN88GggbfPHZCA-363">
          <mxGeometry width="50" height="50" relative="1" as="geometry">
            <mxPoint x="-330" y="3860" as="sourcePoint" />
            <mxPoint x="-365" y="3783.734375" as="targetPoint" />
          </mxGeometry>
        </mxCell>
        <mxCell id="jouAs4YN88GggbfPHZCA-374" value="Sync" style="edgeLabel;html=1;align=center;verticalAlign=middle;resizable=0;points=[];" vertex="1" connectable="0" parent="jouAs4YN88GggbfPHZCA-373">
          <mxGeometry x="0.135" relative="1" as="geometry">
            <mxPoint as="offset" />
          </mxGeometry>
        </mxCell>
        <mxCell id="jouAs4YN88GggbfPHZCA-378" value="" style="endArrow=classic;startArrow=classic;html=1;rounded=0;exitX=1;exitY=0.5;exitDx=0;exitDy=0;exitPerimeter=0;entryX=-0.035;entryY=0.673;entryDx=0;entryDy=0;entryPerimeter=0;" edge="1" parent="1" target="jouAs4YN88GggbfPHZCA-375">
          <mxGeometry width="50" height="50" relative="1" as="geometry">
            <mxPoint x="-170" y="3840" as="sourcePoint" />
            <mxPoint x="-90" y="3820" as="targetPoint" />
          </mxGeometry>
        </mxCell>
        <mxCell id="jouAs4YN88GggbfPHZCA-379" value="Sync" style="edgeLabel;html=1;align=center;verticalAlign=middle;resizable=0;points=[];" vertex="1" connectable="0" parent="jouAs4YN88GggbfPHZCA-378">
          <mxGeometry x="-0.0467" y="2" relative="1" as="geometry">
            <mxPoint as="offset" />
          </mxGeometry>
        </mxCell>
        <mxCell id="jouAs4YN88GggbfPHZCA-387" value="GOOGLE CLOUD STORAGE" style="rounded=0;whiteSpace=wrap;html=1;" vertex="1" parent="1">
          <mxGeometry x="-486" y="4030" width="120" height="60" as="geometry" />
        </mxCell>
        <mxCell id="jouAs4YN88GggbfPHZCA-388" value="" style="endArrow=classic;html=1;rounded=0;exitX=0.5;exitY=1;exitDx=0;exitDy=0;" edge="1" parent="1" source="jouAs4YN88GggbfPHZCA-360" target="jouAs4YN88GggbfPHZCA-387">
          <mxGeometry width="50" height="50" relative="1" as="geometry">
            <mxPoint x="-760" y="3620" as="sourcePoint" />
            <mxPoint x="-710" y="3570" as="targetPoint" />
          </mxGeometry>
        </mxCell>
        <mxCell id="jouAs4YN88GggbfPHZCA-389" value="" style="endArrow=classic;html=1;rounded=0;entryX=0.5;entryY=0;entryDx=0;entryDy=0;exitX=0.5;exitY=1;exitDx=0;exitDy=0;" edge="1" parent="1" source="jouAs4YN88GggbfPHZCA-362" target="jouAs4YN88GggbfPHZCA-387">
          <mxGeometry width="50" height="50" relative="1" as="geometry">
            <mxPoint x="-330" y="3810" as="sourcePoint" />
            <mxPoint x="-280" y="3760" as="targetPoint" />
          </mxGeometry>
        </mxCell>
        <mxCell id="jouAs4YN88GggbfPHZCA-390" value="DOCKER CONTAINER" style="text;html=1;strokeColor=none;fillColor=none;align=center;verticalAlign=middle;whiteSpace=wrap;rounded=0;" vertex="1" parent="1">
          <mxGeometry x="550" y="3260" width="170" height="30" as="geometry" />
        </mxCell>
        <mxCell id="jouAs4YN88GggbfPHZCA-392" style="edgeStyle=orthogonalEdgeStyle;rounded=0;orthogonalLoop=1;jettySize=auto;html=1;exitX=0.5;exitY=1;exitDx=0;exitDy=0;entryX=0.5;entryY=0;entryDx=0;entryDy=0;" edge="1" parent="1" source="jouAs4YN88GggbfPHZCA-393">
          <mxGeometry relative="1" as="geometry">
            <mxPoint x="385" y="3490" as="targetPoint" />
          </mxGeometry>
        </mxCell>
        <mxCell id="jouAs4YN88GggbfPHZCA-391" value="" style="rounded=0;whiteSpace=wrap;html=1;" vertex="1" parent="1">
          <mxGeometry x="80" y="3290" width="640" height="820" as="geometry" />
        </mxCell>
        <mxCell id="jouAs4YN88GggbfPHZCA-393" value="Websocket API" style="rounded=0;whiteSpace=wrap;html=1;" vertex="1" parent="1">
          <mxGeometry x="340" y="3360" width="90" height="40" as="geometry" />
        </mxCell>
        <mxCell id="jouAs4YN88GggbfPHZCA-394" value="CHAT SERVICE" style="text;html=1;strokeColor=none;fillColor=none;align=center;verticalAlign=middle;whiteSpace=wrap;rounded=0;" vertex="1" parent="1">
          <mxGeometry x="299" y="3300" width="170" height="30" as="geometry" />
        </mxCell>
        <mxCell id="jouAs4YN88GggbfPHZCA-419" style="edgeStyle=orthogonalEdgeStyle;rounded=0;orthogonalLoop=1;jettySize=auto;html=1;exitX=0.5;exitY=1;exitDx=0;exitDy=0;" edge="1" parent="1" source="jouAs4YN88GggbfPHZCA-405" target="jouAs4YN88GggbfPHZCA-407">
          <mxGeometry relative="1" as="geometry" />
        </mxCell>
        <mxCell id="jouAs4YN88GggbfPHZCA-405" value="Chat Cloud Infrasctruture" style="html=1;align=center;verticalAlign=top;rounded=1;absoluteArcSize=1;arcSize=20;dashed=1;whiteSpace=wrap;" vertex="1" parent="1">
          <mxGeometry x="110" y="3500" width="560" height="150" as="geometry" />
        </mxCell>
        <mxCell id="jouAs4YN88GggbfPHZCA-396" value="Message Queue" style="rounded=0;whiteSpace=wrap;html=1;" vertex="1" parent="1">
          <mxGeometry x="220" y="3560" width="120" height="60" as="geometry" />
        </mxCell>
        <mxCell id="jouAs4YN88GggbfPHZCA-403" value="User profile Management" style="rounded=0;whiteSpace=wrap;html=1;" vertex="1" parent="1">
          <mxGeometry x="445" y="3560" width="120" height="60" as="geometry" />
        </mxCell>
        <mxCell id="jouAs4YN88GggbfPHZCA-406" value="" style="endArrow=classic;html=1;rounded=0;exitX=0.5;exitY=1;exitDx=0;exitDy=0;" edge="1" parent="1" source="jouAs4YN88GggbfPHZCA-393" target="jouAs4YN88GggbfPHZCA-405">
          <mxGeometry width="50" height="50" relative="1" as="geometry">
            <mxPoint x="370" y="3470" as="sourcePoint" />
            <mxPoint x="420" y="3420" as="targetPoint" />
          </mxGeometry>
        </mxCell>
        <mxCell id="jouAs4YN88GggbfPHZCA-407" value="Database" style="html=1;align=center;verticalAlign=top;rounded=1;absoluteArcSize=1;arcSize=20;dashed=1;whiteSpace=wrap;" vertex="1" parent="1">
          <mxGeometry x="105" y="3720" width="570" height="350" as="geometry" />
        </mxCell>
        <mxCell id="jouAs4YN88GggbfPHZCA-408" value="" style="shape=cylinder3;whiteSpace=wrap;html=1;boundedLbl=1;backgroundOutline=1;size=15;" vertex="1" parent="1">
          <mxGeometry x="182.5" y="3820" width="60" height="80" as="geometry" />
        </mxCell>
        <mxCell id="jouAs4YN88GggbfPHZCA-409" value="Redis with Redis lab for persistence" style="text;html=1;strokeColor=none;fillColor=none;align=center;verticalAlign=middle;whiteSpace=wrap;rounded=0;" vertex="1" parent="1">
          <mxGeometry x="182.5" y="3920" width="60" height="30" as="geometry" />
        </mxCell>
        <mxCell id="jouAs4YN88GggbfPHZCA-410" value="" style="shape=cylinder3;whiteSpace=wrap;html=1;boundedLbl=1;backgroundOutline=1;size=15;" vertex="1" parent="1">
          <mxGeometry x="317.5" y="3820" width="60" height="80" as="geometry" />
        </mxCell>
        <mxCell id="jouAs4YN88GggbfPHZCA-411" value="Redis (in clustor or shared mode)" style="text;html=1;strokeColor=none;fillColor=none;align=center;verticalAlign=middle;whiteSpace=wrap;rounded=0;" vertex="1" parent="1">
          <mxGeometry x="317.5" y="3930" width="60" height="30" as="geometry" />
        </mxCell>
        <mxCell id="jouAs4YN88GggbfPHZCA-414" value="" style="shape=cylinder3;whiteSpace=wrap;html=1;boundedLbl=1;backgroundOutline=1;size=15;" vertex="1" parent="1">
          <mxGeometry x="475" y="3820" width="60" height="80" as="geometry" />
        </mxCell>
        <mxCell id="jouAs4YN88GggbfPHZCA-415" value="Riak si, Cassandra, Aerospike, SC yallaDB, Elastic seach" style="text;html=1;strokeColor=none;fillColor=none;align=center;verticalAlign=middle;whiteSpace=wrap;rounded=0;" vertex="1" parent="1">
          <mxGeometry x="432.5" y="3930" width="145" height="30" as="geometry" />
        </mxCell>
        <mxCell id="jouAs4YN88GggbfPHZCA-416" value="COLD CHAT HISTORY" style="text;html=1;strokeColor=none;fillColor=none;align=center;verticalAlign=middle;whiteSpace=wrap;rounded=0;" vertex="1" parent="1">
          <mxGeometry x="475" y="3770" width="60" height="30" as="geometry" />
        </mxCell>
        <mxCell id="jouAs4YN88GggbfPHZCA-417" value="HOT CHAT HISTORY (RECENT MESSAGE)" style="text;html=1;strokeColor=none;fillColor=none;align=center;verticalAlign=middle;whiteSpace=wrap;rounded=0;" vertex="1" parent="1">
          <mxGeometry x="294" y="3770" width="132" height="30" as="geometry" />
        </mxCell>
        <mxCell id="jouAs4YN88GggbfPHZCA-418" value="Metadata database (user group &amp;amp; chat room)" style="text;html=1;strokeColor=none;fillColor=none;align=center;verticalAlign=middle;whiteSpace=wrap;rounded=0;" vertex="1" parent="1">
          <mxGeometry x="142" y="3770" width="143" height="30" as="geometry" />
        </mxCell>
        <mxCell id="jouAs4YN88GggbfPHZCA-422" value="" style="endArrow=classic;html=1;rounded=0;entryX=0.5;entryY=0;entryDx=0;entryDy=0;exitX=0.5;exitY=1;exitDx=0;exitDy=0;" edge="1" parent="1" source="eeQnbSwuubueaIoQva4B-35" target="jouAs4YN88GggbfPHZCA-353">
          <mxGeometry width="50" height="50" relative="1" as="geometry">
            <mxPoint x="590" y="1660" as="sourcePoint" />
            <mxPoint x="640" y="1610" as="targetPoint" />
          </mxGeometry>
        </mxCell>
        <mxCell id="jouAs4YN88GggbfPHZCA-423" value="CHAT SERVICE" style="rounded=0;whiteSpace=wrap;html=1;" vertex="1" parent="1">
          <mxGeometry x="270" y="1730" width="120" height="60" as="geometry" />
        </mxCell>
        <mxCell id="jouAs4YN88GggbfPHZCA-424" value="" style="endArrow=classic;html=1;rounded=0;entryX=1;entryY=0;entryDx=0;entryDy=0;exitX=0.5;exitY=1;exitDx=0;exitDy=0;" edge="1" parent="1" source="eeQnbSwuubueaIoQva4B-35" target="jouAs4YN88GggbfPHZCA-423">
          <mxGeometry width="50" height="50" relative="1" as="geometry">
            <mxPoint x="530" y="1600" as="sourcePoint" />
            <mxPoint x="580" y="1550" as="targetPoint" />
          </mxGeometry>
        </mxCell>
        <mxCell id="jouAs4YN88GggbfPHZCA-426" value="" style="endArrow=none;dashed=1;html=1;rounded=0;entryX=0.5;entryY=1;entryDx=0;entryDy=0;exitX=0.5;exitY=0;exitDx=0;exitDy=0;" edge="1" parent="1" source="jouAs4YN88GggbfPHZCA-391" target="jouAs4YN88GggbfPHZCA-423">
          <mxGeometry width="50" height="50" relative="1" as="geometry">
            <mxPoint x="720" y="2160" as="sourcePoint" />
            <mxPoint x="770" y="2110" as="targetPoint" />
            <Array as="points">
              <mxPoint x="400" y="3110" />
              <mxPoint x="730" y="3110" />
              <mxPoint x="730" y="2790" />
              <mxPoint x="740" y="2140" />
              <mxPoint x="430" y="2140" />
            </Array>
          </mxGeometry>
        </mxCell>
        <mxCell id="jouAs4YN88GggbfPHZCA-427" value="DOCKER CONTAINER" style="text;html=1;strokeColor=none;fillColor=none;align=center;verticalAlign=middle;whiteSpace=wrap;rounded=0;" vertex="1" parent="1">
          <mxGeometry x="1425" y="3610" width="170" height="30" as="geometry" />
        </mxCell>
        <mxCell id="jouAs4YN88GggbfPHZCA-428" value="" style="rounded=0;whiteSpace=wrap;html=1;" vertex="1" parent="1">
          <mxGeometry x="955" y="3640" width="640" height="660" as="geometry" />
        </mxCell>
        <mxCell id="jouAs4YN88GggbfPHZCA-429" style="edgeStyle=orthogonalEdgeStyle;rounded=0;orthogonalLoop=1;jettySize=auto;html=1;exitX=0.5;exitY=1;exitDx=0;exitDy=0;entryX=0.5;entryY=0;entryDx=0;entryDy=0;" edge="1" parent="1" source="jouAs4YN88GggbfPHZCA-430" target="jouAs4YN88GggbfPHZCA-432">
          <mxGeometry relative="1" as="geometry" />
        </mxCell>
        <mxCell id="jouAs4YN88GggbfPHZCA-430" value="REST API" style="rounded=0;whiteSpace=wrap;html=1;" vertex="1" parent="1">
          <mxGeometry x="1215" y="3710" width="90" height="40" as="geometry" />
        </mxCell>
        <mxCell id="jouAs4YN88GggbfPHZCA-431" value="SEND EMAIL SERVICE" style="text;html=1;strokeColor=none;fillColor=none;align=center;verticalAlign=middle;whiteSpace=wrap;rounded=0;" vertex="1" parent="1">
          <mxGeometry x="1190" y="3650" width="170" height="30" as="geometry" />
        </mxCell>
        <mxCell id="jouAs4YN88GggbfPHZCA-432" value="Controller" style="rounded=1;whiteSpace=wrap;html=1;" vertex="1" parent="1">
          <mxGeometry x="1200" y="3840" width="120" height="60" as="geometry" />
        </mxCell>
        <mxCell id="jouAs4YN88GggbfPHZCA-433" value="VIEW EMAIL HISTORY" style="rounded=0;whiteSpace=wrap;html=1;" vertex="1" parent="1">
          <mxGeometry x="1235" y="3970" width="120" height="60" as="geometry" />
        </mxCell>
        <mxCell id="jouAs4YN88GggbfPHZCA-434" value="" style="endArrow=classic;html=1;rounded=0;exitX=0.5;exitY=1;exitDx=0;exitDy=0;entryX=0.5;entryY=0;entryDx=0;entryDy=0;" edge="1" parent="1" source="jouAs4YN88GggbfPHZCA-432" target="jouAs4YN88GggbfPHZCA-433">
          <mxGeometry width="50" height="50" relative="1" as="geometry">
            <mxPoint x="1415" y="3920" as="sourcePoint" />
            <mxPoint x="1465" y="3870" as="targetPoint" />
          </mxGeometry>
        </mxCell>
        <mxCell id="jouAs4YN88GggbfPHZCA-435" value="SEND EMAIL" style="rounded=0;whiteSpace=wrap;html=1;" vertex="1" parent="1">
          <mxGeometry x="1425" y="3970" width="120" height="60" as="geometry" />
        </mxCell>
        <mxCell id="jouAs4YN88GggbfPHZCA-436" value="" style="shape=cylinder3;whiteSpace=wrap;html=1;boundedLbl=1;backgroundOutline=1;size=15;" vertex="1" parent="1">
          <mxGeometry x="1455" y="4160" width="60" height="80" as="geometry" />
        </mxCell>
        <mxCell id="jouAs4YN88GggbfPHZCA-437" value="" style="endArrow=classic;html=1;rounded=0;exitX=0.235;exitY=0.8;exitDx=0;exitDy=0;entryX=1;entryY=0.5;entryDx=0;entryDy=0;entryPerimeter=0;exitPerimeter=0;" edge="1" parent="1" source="jouAs4YN88GggbfPHZCA-458" target="jouAs4YN88GggbfPHZCA-436">
          <mxGeometry width="50" height="50" relative="1" as="geometry">
            <mxPoint x="1505" y="4140" as="sourcePoint" />
            <mxPoint x="1555" y="4090" as="targetPoint" />
          </mxGeometry>
        </mxCell>
        <mxCell id="jouAs4YN88GggbfPHZCA-459" value="If suscess" style="edgeLabel;html=1;align=center;verticalAlign=middle;resizable=0;points=[];" vertex="1" connectable="0" parent="jouAs4YN88GggbfPHZCA-437">
          <mxGeometry x="-0.0137" y="1" relative="1" as="geometry">
            <mxPoint as="offset" />
          </mxGeometry>
        </mxCell>
        <mxCell id="jouAs4YN88GggbfPHZCA-439" value="" style="endArrow=classic;html=1;rounded=0;exitX=0.5;exitY=1;exitDx=0;exitDy=0;entryX=0.329;entryY=-0.005;entryDx=0;entryDy=0;entryPerimeter=0;" edge="1" parent="1" source="jouAs4YN88GggbfPHZCA-433" target="jouAs4YN88GggbfPHZCA-436">
          <mxGeometry width="50" height="50" relative="1" as="geometry">
            <mxPoint x="1435" y="4160" as="sourcePoint" />
            <mxPoint x="1485" y="4110" as="targetPoint" />
          </mxGeometry>
        </mxCell>
        <mxCell id="jouAs4YN88GggbfPHZCA-440" value="if cache miss" style="edgeLabel;html=1;align=center;verticalAlign=middle;resizable=0;points=[];" vertex="1" connectable="0" parent="jouAs4YN88GggbfPHZCA-439">
          <mxGeometry x="-0.0738" relative="1" as="geometry">
            <mxPoint as="offset" />
          </mxGeometry>
        </mxCell>
        <mxCell id="jouAs4YN88GggbfPHZCA-441" value="" style="endArrow=classic;html=1;rounded=0;exitX=0.5;exitY=1;exitDx=0;exitDy=0;entryX=0.5;entryY=0;entryDx=0;entryDy=0;" edge="1" parent="1" source="jouAs4YN88GggbfPHZCA-432" target="jouAs4YN88GggbfPHZCA-435">
          <mxGeometry width="50" height="50" relative="1" as="geometry">
            <mxPoint x="1405" y="3950" as="sourcePoint" />
            <mxPoint x="1455" y="3900" as="targetPoint" />
          </mxGeometry>
        </mxCell>
        <mxCell id="jouAs4YN88GggbfPHZCA-442" value="" style="image;sketch=0;aspect=fixed;html=1;points=[];align=center;fontSize=12;image=img/lib/mscae/Cache_Redis_Product.svg;" vertex="1" parent="1">
          <mxGeometry x="1270" y="4110" width="50" height="42" as="geometry" />
        </mxCell>
        <mxCell id="jouAs4YN88GggbfPHZCA-443" value="" style="endArrow=classic;html=1;rounded=0;exitX=0.5;exitY=1;exitDx=0;exitDy=0;entryX=0.49;entryY=0;entryDx=0;entryDy=0;entryPerimeter=0;" edge="1" parent="1" source="jouAs4YN88GggbfPHZCA-445" target="jouAs4YN88GggbfPHZCA-442">
          <mxGeometry width="50" height="50" relative="1" as="geometry">
            <mxPoint x="1035.42" y="4112" as="sourcePoint" />
            <mxPoint x="1065" y="4135" as="targetPoint" />
          </mxGeometry>
        </mxCell>
        <mxCell id="jouAs4YN88GggbfPHZCA-444" value="" style="endArrow=classic;html=1;rounded=0;exitX=0.5;exitY=1;exitDx=0;exitDy=0;entryX=0.49;entryY=0;entryDx=0;entryDy=0;entryPerimeter=0;" edge="1" parent="1" source="jouAs4YN88GggbfPHZCA-433" target="jouAs4YN88GggbfPHZCA-445">
          <mxGeometry width="50" height="50" relative="1" as="geometry">
            <mxPoint x="1295" y="4030" as="sourcePoint" />
            <mxPoint x="1295" y="4110" as="targetPoint" />
          </mxGeometry>
        </mxCell>
        <mxCell id="jouAs4YN88GggbfPHZCA-445" value="If cache hit" style="text;html=1;strokeColor=none;fillColor=none;align=center;verticalAlign=middle;whiteSpace=wrap;rounded=0;" vertex="1" parent="1">
          <mxGeometry x="1257.5" y="4060" width="75" height="30" as="geometry" />
        </mxCell>
        <mxCell id="jouAs4YN88GggbfPHZCA-446" value="" style="endArrow=classic;startArrow=classic;html=1;rounded=0;exitX=0;exitY=0;exitDx=0;exitDy=52.5;exitPerimeter=0;" edge="1" parent="1" source="jouAs4YN88GggbfPHZCA-436" target="jouAs4YN88GggbfPHZCA-442">
          <mxGeometry width="50" height="50" relative="1" as="geometry">
            <mxPoint x="1355" y="4220" as="sourcePoint" />
            <mxPoint x="1405" y="4170" as="targetPoint" />
          </mxGeometry>
        </mxCell>
        <mxCell id="jouAs4YN88GggbfPHZCA-447" value="Sync" style="edgeLabel;html=1;align=center;verticalAlign=middle;resizable=0;points=[];" vertex="1" connectable="0" parent="jouAs4YN88GggbfPHZCA-446">
          <mxGeometry x="0.135" relative="1" as="geometry">
            <mxPoint as="offset" />
          </mxGeometry>
        </mxCell>
        <mxCell id="jouAs4YN88GggbfPHZCA-456" value="Primary" style="text;html=1;strokeColor=none;fillColor=none;align=center;verticalAlign=middle;whiteSpace=wrap;rounded=0;" vertex="1" parent="1">
          <mxGeometry x="1455" y="4240" width="60" height="30" as="geometry" />
        </mxCell>
        <mxCell id="jouAs4YN88GggbfPHZCA-458" value="" style="outlineConnect=0;dashed=0;verticalLabelPosition=bottom;verticalAlign=top;align=center;html=1;shape=mxgraph.aws3.ses;fillColor=#D9A741;gradientColor=none;" vertex="1" parent="1">
          <mxGeometry x="1728.42" y="4059" width="79.5" height="93" as="geometry" />
        </mxCell>
        <mxCell id="jouAs4YN88GggbfPHZCA-460" value="" style="endArrow=classic;html=1;rounded=0;exitX=0.992;exitY=0.6;exitDx=0;exitDy=0;exitPerimeter=0;" edge="1" parent="1" source="jouAs4YN88GggbfPHZCA-435" target="jouAs4YN88GggbfPHZCA-458">
          <mxGeometry width="50" height="50" relative="1" as="geometry">
            <mxPoint x="1690" y="4060" as="sourcePoint" />
            <mxPoint x="1740" y="4010" as="targetPoint" />
          </mxGeometry>
        </mxCell>
        <mxCell id="jouAs4YN88GggbfPHZCA-461" value="Send email" style="edgeLabel;html=1;align=center;verticalAlign=middle;resizable=0;points=[];" vertex="1" connectable="0" parent="jouAs4YN88GggbfPHZCA-460">
          <mxGeometry x="-0.2321" y="3" relative="1" as="geometry">
            <mxPoint as="offset" />
          </mxGeometry>
        </mxCell>
        <mxCell id="jouAs4YN88GggbfPHZCA-462" value="Amazon SES" style="text;html=1;strokeColor=none;fillColor=none;align=center;verticalAlign=middle;whiteSpace=wrap;rounded=0;" vertex="1" parent="1">
          <mxGeometry x="1740" y="4160" width="60" height="30" as="geometry" />
        </mxCell>
        <mxCell id="jouAs4YN88GggbfPHZCA-463" value="SEND EMAIL SERVICE" style="rounded=0;whiteSpace=wrap;html=1;" vertex="1" parent="1">
          <mxGeometry x="850" y="1990" width="120" height="60" as="geometry" />
        </mxCell>
        <mxCell id="jouAs4YN88GggbfPHZCA-464" value="" style="endArrow=none;dashed=1;html=1;rounded=0;entryX=0.5;entryY=1;entryDx=0;entryDy=0;exitX=0.5;exitY=0;exitDx=0;exitDy=0;" edge="1" parent="1" source="jouAs4YN88GggbfPHZCA-428" target="jouAs4YN88GggbfPHZCA-463">
          <mxGeometry width="50" height="50" relative="1" as="geometry">
            <mxPoint x="850" y="3020" as="sourcePoint" />
            <mxPoint x="890" y="2130" as="targetPoint" />
            <Array as="points">
              <mxPoint x="1275" y="3220" />
              <mxPoint x="770" y="3220" />
              <mxPoint x="760" y="2210" />
            </Array>
          </mxGeometry>
        </mxCell>
        <mxCell id="jouAs4YN88GggbfPHZCA-465" value="" style="endArrow=classic;html=1;rounded=0;entryX=0.5;entryY=0;entryDx=0;entryDy=0;exitX=0.5;exitY=1;exitDx=0;exitDy=0;" edge="1" parent="1" source="eeQnbSwuubueaIoQva4B-35" target="jouAs4YN88GggbfPHZCA-463">
          <mxGeometry width="50" height="50" relative="1" as="geometry">
            <mxPoint x="1140" y="2020" as="sourcePoint" />
            <mxPoint x="1190" y="1970" as="targetPoint" />
          </mxGeometry>
        </mxCell>
        <mxCell id="jouAs4YN88GggbfPHZCA-466" value="" style="endArrow=classic;html=1;rounded=0;exitX=0.5;exitY=1;exitDx=0;exitDy=0;entryX=1;entryY=0.5;entryDx=0;entryDy=0;" edge="1" parent="1" source="jouAs4YN88GggbfPHZCA-115" target="jouAs4YN88GggbfPHZCA-430">
          <mxGeometry width="50" height="50" relative="1" as="geometry">
            <mxPoint x="1990" y="2800" as="sourcePoint" />
            <mxPoint x="2040" y="2750" as="targetPoint" />
          </mxGeometry>
        </mxCell>
        <mxCell id="jouAs4YN88GggbfPHZCA-467" value="SEND ALERT EMAIL" style="edgeLabel;html=1;align=center;verticalAlign=middle;resizable=0;points=[];" vertex="1" connectable="0" parent="jouAs4YN88GggbfPHZCA-466">
          <mxGeometry x="-0.7236" y="2" relative="1" as="geometry">
            <mxPoint as="offset" />
          </mxGeometry>
        </mxCell>
        <mxCell id="jouAs4YN88GggbfPHZCA-468" value="Mornitoring" style="html=1;align=center;verticalAlign=top;rounded=1;absoluteArcSize=1;arcSize=20;dashed=1;whiteSpace=wrap;" vertex="1" parent="1">
          <mxGeometry x="1830" y="990" width="870" height="450" as="geometry" />
        </mxCell>
        <mxCell id="jouAs4YN88GggbfPHZCA-470" value="" style="rounded=0;whiteSpace=wrap;html=1;" vertex="1" parent="1">
          <mxGeometry x="1878" y="1080" width="212" height="240" as="geometry" />
        </mxCell>
        <mxCell id="jouAs4YN88GggbfPHZCA-471" value="Alert engine" style="text;html=1;strokeColor=none;fillColor=none;align=center;verticalAlign=middle;whiteSpace=wrap;rounded=0;" vertex="1" parent="1">
          <mxGeometry x="1936" y="1090" width="96" height="30" as="geometry" />
        </mxCell>
        <mxCell id="jouAs4YN88GggbfPHZCA-472" value="Email" style="rounded=0;whiteSpace=wrap;html=1;" vertex="1" parent="1">
          <mxGeometry x="1946" y="1130" width="76" height="35" as="geometry" />
        </mxCell>
        <mxCell id="jouAs4YN88GggbfPHZCA-473" value="Stack" style="rounded=0;whiteSpace=wrap;html=1;" vertex="1" parent="1">
          <mxGeometry x="1943" y="1190" width="80" height="40" as="geometry" />
        </mxCell>
        <mxCell id="jouAs4YN88GggbfPHZCA-474" value="Webhooks" style="rounded=0;whiteSpace=wrap;html=1;" vertex="1" parent="1">
          <mxGeometry x="1946" y="1260" width="74" height="40" as="geometry" />
        </mxCell>
        <mxCell id="jouAs4YN88GggbfPHZCA-475" value="" style="rounded=0;whiteSpace=wrap;html=1;" vertex="1" parent="1">
          <mxGeometry x="2153" y="1080" width="487" height="290" as="geometry" />
        </mxCell>
        <mxCell id="jouAs4YN88GggbfPHZCA-476" value="PROMETHEUS CLUSTER" style="text;html=1;strokeColor=none;fillColor=none;align=center;verticalAlign=middle;whiteSpace=wrap;rounded=0;" vertex="1" parent="1">
          <mxGeometry x="2237.5" y="1090" width="158" height="30" as="geometry" />
        </mxCell>
        <mxCell id="jouAs4YN88GggbfPHZCA-477" value="ALERT MANGER" style="rounded=0;whiteSpace=wrap;html=1;" vertex="1" parent="1">
          <mxGeometry x="2180" y="1170" width="120" height="60" as="geometry" />
        </mxCell>
        <mxCell id="jouAs4YN88GggbfPHZCA-478" value="" style="endArrow=classic;html=1;rounded=0;entryX=1;entryY=0.5;entryDx=0;entryDy=0;exitX=0;exitY=0.5;exitDx=0;exitDy=0;" edge="1" parent="1" source="jouAs4YN88GggbfPHZCA-477" target="jouAs4YN88GggbfPHZCA-472">
          <mxGeometry width="50" height="50" relative="1" as="geometry">
            <mxPoint x="2070" y="1150" as="sourcePoint" />
            <mxPoint x="2120" y="1100" as="targetPoint" />
          </mxGeometry>
        </mxCell>
        <mxCell id="jouAs4YN88GggbfPHZCA-479" value="" style="endArrow=classic;html=1;rounded=0;exitX=0;exitY=0.5;exitDx=0;exitDy=0;entryX=1;entryY=0.5;entryDx=0;entryDy=0;" edge="1" parent="1" source="jouAs4YN88GggbfPHZCA-477" target="jouAs4YN88GggbfPHZCA-473">
          <mxGeometry width="50" height="50" relative="1" as="geometry">
            <mxPoint x="1780" y="1250" as="sourcePoint" />
            <mxPoint x="1830" y="1200" as="targetPoint" />
          </mxGeometry>
        </mxCell>
        <mxCell id="jouAs4YN88GggbfPHZCA-480" value="" style="endArrow=classic;html=1;rounded=0;exitX=0;exitY=0.5;exitDx=0;exitDy=0;entryX=1;entryY=0.5;entryDx=0;entryDy=0;" edge="1" parent="1" source="jouAs4YN88GggbfPHZCA-477" target="jouAs4YN88GggbfPHZCA-474">
          <mxGeometry width="50" height="50" relative="1" as="geometry">
            <mxPoint x="2050" y="1320" as="sourcePoint" />
            <mxPoint x="2100" y="1270" as="targetPoint" />
          </mxGeometry>
        </mxCell>
        <mxCell id="jouAs4YN88GggbfPHZCA-481" value="PROMETHEUS SERVER" style="rounded=0;whiteSpace=wrap;html=1;" vertex="1" parent="1">
          <mxGeometry x="2350" y="1170" width="120" height="60" as="geometry" />
        </mxCell>
        <mxCell id="jouAs4YN88GggbfPHZCA-482" value="NODE&lt;br&gt;SSD/HDD" style="rounded=0;whiteSpace=wrap;html=1;" vertex="1" parent="1">
          <mxGeometry x="2350" y="1280" width="120" height="60" as="geometry" />
        </mxCell>
        <mxCell id="jouAs4YN88GggbfPHZCA-484" value="" style="rounded=0;whiteSpace=wrap;html=1;" vertex="1" parent="1">
          <mxGeometry x="2760" y="1060" width="360" height="340" as="geometry" />
        </mxCell>
        <mxCell id="jouAs4YN88GggbfPHZCA-483" value="" style="image;aspect=fixed;html=1;points=[];align=center;fontSize=12;image=img/lib/azure2/other/Grafana.svg;" vertex="1" parent="1">
          <mxGeometry x="2891" y="1120" width="98" height="76.09" as="geometry" />
        </mxCell>
        <mxCell id="jouAs4YN88GggbfPHZCA-485" value="Data visualization export" style="text;html=1;strokeColor=none;fillColor=none;align=center;verticalAlign=middle;whiteSpace=wrap;rounded=0;" vertex="1" parent="1">
          <mxGeometry x="2870" y="1070" width="160" height="30" as="geometry" />
        </mxCell>
        <mxCell id="jouAs4YN88GggbfPHZCA-486" value="Grafana" style="text;html=1;strokeColor=none;fillColor=none;align=center;verticalAlign=middle;whiteSpace=wrap;rounded=0;" vertex="1" parent="1">
          <mxGeometry x="2910" y="1201" width="60" height="30" as="geometry" />
        </mxCell>
        <mxCell id="jouAs4YN88GggbfPHZCA-488" value="API Clients" style="rounded=0;whiteSpace=wrap;html=1;" vertex="1" parent="1">
          <mxGeometry x="2890" y="1250" width="120" height="60" as="geometry" />
        </mxCell>
        <mxCell id="jouAs4YN88GggbfPHZCA-489" value="Prometheus web UI" style="rounded=0;whiteSpace=wrap;html=1;" vertex="1" parent="1">
          <mxGeometry x="2891" y="1330" width="120" height="60" as="geometry" />
        </mxCell>
        <mxCell id="jouAs4YN88GggbfPHZCA-490" value="" style="endArrow=classic;html=1;rounded=0;entryX=0.998;entryY=0.284;entryDx=0;entryDy=0;entryPerimeter=0;" edge="1" parent="1" source="jouAs4YN88GggbfPHZCA-483" target="jouAs4YN88GggbfPHZCA-475">
          <mxGeometry width="50" height="50" relative="1" as="geometry">
            <mxPoint x="2800" y="1180" as="sourcePoint" />
            <mxPoint x="2850" y="1130" as="targetPoint" />
          </mxGeometry>
        </mxCell>
        <mxCell id="jouAs4YN88GggbfPHZCA-491" value="" style="endArrow=classic;html=1;rounded=0;exitX=0;exitY=0.5;exitDx=0;exitDy=0;" edge="1" parent="1" source="jouAs4YN88GggbfPHZCA-488">
          <mxGeometry width="50" height="50" relative="1" as="geometry">
            <mxPoint x="2810" y="1320" as="sourcePoint" />
            <mxPoint x="2830" y="1160" as="targetPoint" />
            <Array as="points">
              <mxPoint x="2830" y="1280" />
            </Array>
          </mxGeometry>
        </mxCell>
        <mxCell id="jouAs4YN88GggbfPHZCA-492" value="" style="endArrow=classic;html=1;rounded=0;exitX=0;exitY=0.5;exitDx=0;exitDy=0;" edge="1" parent="1" source="jouAs4YN88GggbfPHZCA-489">
          <mxGeometry width="50" height="50" relative="1" as="geometry">
            <mxPoint x="2780" y="1370" as="sourcePoint" />
            <mxPoint x="2830" y="1280" as="targetPoint" />
            <Array as="points">
              <mxPoint x="2830" y="1360" />
            </Array>
          </mxGeometry>
        </mxCell>
        <mxCell id="jouAs4YN88GggbfPHZCA-493" value="PromQL" style="text;html=1;align=center;verticalAlign=middle;resizable=0;points=[];autosize=1;strokeColor=none;fillColor=none;" vertex="1" parent="1">
          <mxGeometry x="2695" y="1138" width="70" height="30" as="geometry" />
        </mxCell>
        <mxCell id="jouAs4YN88GggbfPHZCA-494" value="" style="endArrow=classic;html=1;rounded=0;exitX=0.5;exitY=1;exitDx=0;exitDy=0;entryX=0.5;entryY=0;entryDx=0;entryDy=0;" edge="1" parent="1" source="jouAs4YN88GggbfPHZCA-481" target="jouAs4YN88GggbfPHZCA-482">
          <mxGeometry width="50" height="50" relative="1" as="geometry">
            <mxPoint x="2500" y="1280" as="sourcePoint" />
            <mxPoint x="2550" y="1230" as="targetPoint" />
          </mxGeometry>
        </mxCell>
        <mxCell id="jouAs4YN88GggbfPHZCA-495" value="" style="endArrow=classic;html=1;rounded=0;exitX=0;exitY=0.5;exitDx=0;exitDy=0;entryX=1;entryY=0.5;entryDx=0;entryDy=0;" edge="1" parent="1" source="jouAs4YN88GggbfPHZCA-481" target="jouAs4YN88GggbfPHZCA-477">
          <mxGeometry width="50" height="50" relative="1" as="geometry">
            <mxPoint x="2390" y="1200" as="sourcePoint" />
            <mxPoint x="2440" y="1150" as="targetPoint" />
          </mxGeometry>
        </mxCell>
        <mxCell id="jouAs4YN88GggbfPHZCA-496" value="" style="endArrow=none;dashed=1;html=1;rounded=0;entryX=0;entryY=0;entryDx=0;entryDy=0;exitX=1;exitY=0;exitDx=0;exitDy=0;" edge="1" parent="1" source="eeQnbSwuubueaIoQva4B-22" target="jouAs4YN88GggbfPHZCA-468">
          <mxGeometry width="50" height="50" relative="1" as="geometry">
            <mxPoint x="1773.42" y="1000" as="sourcePoint" />
            <mxPoint x="1823.42" y="950" as="targetPoint" />
            <Array as="points">
              <mxPoint x="1241" y="990" />
            </Array>
          </mxGeometry>
        </mxCell>
      </root>
    </mxGraphModel>
  </diagram>
</mxfile>
